<?xml version="1.0" encoding="utf-8"?>
<!-- Generator: Adobe Illustrator 28.1.0, SVG Export Plug-In . SVG Version: 6.00 Build 0)  -->
<svg version="1.1" id="Layer_1" xmlns="http://www.w3.org/2000/svg" xmlns:xlink="http://www.w3.org/1999/xlink" x="0px" y="0px"
	 viewBox="0 0 42.4 54.4" style="enable-background:new 0 0 42.4 54.4;" xml:space="preserve">
<style type="text/css">
	.st0{fill:#141B21;}
	.st1{fill:none;stroke:#141B21;stroke-width:0.2451;}
</style>
<g>
	<path class="st0" d="M4.4,29.7c0-0.4-0.1-0.5-0.2-0.7c-0.1-0.1-1-1.7-1.3-2c-0.2-0.3-0.3-0.5-0.5-0.5c-0.2-0.1-0.2-0.1-0.3-0.1
		c0,0-0.1,0-0.1-0.1c0,0,0-0.1,0.1-0.1c0.2,0,0.7,0,0.7,0c0.1,0,0.3,0,0.6,0c0.1,0,0.1,0,0.1,0.1c0,0-0.1,0.1-0.2,0.1
		c-0.1,0-0.1,0.1-0.1,0.2c0,0.1,0.1,0.2,0.1,0.3L4.8,29c0.2-0.3,1.1-1.8,1.2-2c0.3-0.3,0.3-0.4,0.3-0.5c0-0.1,0-0.2-0.2-0.2
		c-0.1,0-0.2-0.1-0.2-0.1s0,0,0.2,0c0.2,0,0.5,0,0.5,0c0.1,0,0.5,0,0.7,0c0.1,0,0.1,0,0.1,0s0,0.1-0.1,0.1s-0.2,0-0.3,0.1
		c-0.2,0.1-0.2,0.2-0.4,0.4c-0.3,0.3-1.3,1.9-1.5,2.2c-0.2,0.2-0.1,0.5-0.1,0.7v0.6c0,0.2,0,0.5,0,0.7s0.1,0.3,0.3,0.4
		c0.1,0,0.3,0,0.3,0s0.1,0,0.1,0.1s0,0.1-0.2,0.1c-0.4,0-0.8,0-0.9,0c0,0-0.5,0-0.7,0c-0.1,0-0.2,0-0.2-0.1s0-0.1,0.1-0.1
		c0.1,0,0.2,0,0.2,0c0.2,0,0.2-0.2,0.2-0.4c0-0.3,0-0.5,0-0.7L4.4,29.7"/>
	<path class="st0" d="M8.4,28.3c0-1.1,0-1.3,0-1.5c0-0.2-0.1-0.4-0.3-0.4c-0.1,0-0.2,0-0.2,0c0,0-0.1,0-0.1-0.1c0,0,0-0.1,0.2-0.1
		c0.3,0,0.8,0,0.8,0c0.1,0,1.5,0,1.7,0c0.2,0,0.3,0,0.3,0h0.1c0,0,0,0,0,0.1s0,0.2-0.1,0.3c0,0.1,0,0.4,0,0.5c0,0,0,0.1-0.1,0.1
		c0,0-0.1,0-0.1-0.1c0-0.1,0-0.2,0-0.2c-0.1-0.2-0.2-0.2-0.5-0.2c-0.2,0-1,0-1.1,0c0,0,0,0,0,0.1v1.8c0,0.1,0,0.1,0,0.1
		c0.1,0,1.1,0,1.2,0s0.3,0,0.4-0.1s0.1-0.1,0.1-0.1s0,0,0,0.1s0,0.2-0.1,0.4c0,0.2,0,0.4,0,0.5c0,0.1,0,0.2-0.1,0.2
		c0,0-0.1,0-0.1-0.1c0-0.1,0-0.2,0-0.2S10.4,29,10.1,29c-0.2,0-1,0-1.1,0c0,0-0.1,0-0.1,0.1v0.5c0,0.2,0,1.1,0,1.2
		c0,0.5,0.2,0.5,0.8,0.5c0.2,0,0.5,0,0.7-0.1s0.3-0.2,0.3-0.5c0-0.1,0-0.1,0.1-0.1s0.1,0.1,0.1,0.1s-0.1,0.5-0.1,0.7
		c-0.1,0.2-0.2,0.2-0.4,0.2c-0.5,0-1,0-1.3,0c-0.3,0-0.5,0-0.6,0c0,0-0.2,0-0.3,0c-0.2,0-0.3,0-0.5,0c-0.1,0-0.2,0-0.2-0.1
		s0-0.1,0.1-0.1s0.2,0,0.2,0c0.2,0,0.2-0.2,0.2-0.4c0-0.3,0-0.8,0-1.5L8.4,28.3"/>
	<path class="st0" d="M14.8,29.3L14.8,29.3l-0.7-2c0-0.1-0.1-0.1-0.2,0l-0.6,2v0.1L14.8,29.3L14.8,29.3z M14,26.4
		c0.1-0.2,0.2-0.3,0.2-0.3c0.1,0,0.1,0.1,0.2,0.2c0.2,0.3,1.3,3.2,1.8,4.2c0.3,0.6,0.5,0.7,0.6,0.8c0.1,0,0.2,0,0.3,0
		c0,0,0.1,0,0.1,0.1S17,31.5,17,31.5c-0.1,0-0.6,0-1.2,0c-0.2,0-0.2,0-0.2-0.1c0,0,0,0,0.1-0.1c0,0,0.2-0.1,0.1-0.2l-0.7-1.6
		c0,0,0,0-0.1,0h-1.7c0,0-0.1,0-0.1,0.1l-0.5,1.2c-0.1,0.2-0.1,0.4-0.1,0.5c0,0.2,0.2,0.2,0.2,0.2H13c0.1,0,0.1,0,0.1,0.1
		c0,0,0,0.1-0.1,0.1c-0.2,0-0.5,0-0.7,0c-0.1,0-0.5,0-0.7,0c-0.1,0-0.2,0-0.2-0.1c0,0,0-0.1,0.1-0.1s0.2,0,0.2,0
		c0.3,0,0.5-0.3,0.6-0.6L14,26.4"/>
	<path class="st0" d="M18.7,28.9C18.7,28.9,18.7,29,18.7,28.9c0.2,0.2,0.5,0.2,0.9,0.2c0.2,0,0.4,0,0.5-0.2c0.2-0.2,0.5-0.5,0.5-1.1
		c0-0.8-0.5-1.4-1.3-1.4c-0.2,0-0.5,0-0.5,0c0,0-0.1,0-0.1,0.1V28.9L18.7,28.9L18.7,28.9z M18,28.3c0-1.1,0-1.3,0-1.5
		c0-0.2-0.1-0.4-0.3-0.4c-0.1,0-0.2,0-0.2,0c0,0-0.1,0-0.1-0.1c0,0,0-0.1,0.2-0.1c0.3,0,0.8,0,0.8,0c0.1,0,0.7,0,0.9,0
		c0.5,0,1,0,1.4,0.3c0.2,0.2,0.5,0.5,0.5,1c0,0.5-0.2,1-0.8,1.6c0.6,0.7,1.1,1.4,1.5,1.8c0.4,0.4,0.6,0.5,0.8,0.5c0.2,0,0.2,0,0.2,0
		s0.1,0,0.1,0.1s0,0.1-0.2,0.1h-0.5c-0.5,0-0.6,0-0.8-0.2c-0.3-0.2-0.5-0.5-1-1c-0.3-0.4-0.6-0.8-0.8-1h-0.1h-0.9c0,0-0.1,0-0.1,0.1
		v0.2c0,0.7,0,1.2,0,1.5c0,0.2,0.1,0.3,0.3,0.4c0.1,0,0.2,0,0.3,0s0.1,0,0.1,0.1c0,0,0,0.1-0.2,0.1c-0.4,0-0.8,0-0.8,0s-0.5,0-0.7,0
		c-0.1,0-0.2,0-0.2-0.1c0,0,0-0.1,0.1-0.1s0.2,0,0.2,0c0.2,0,0.2-0.2,0.2-0.4c0-0.3,0-0.8,0-1.5L18,28.3"/>
	<path class="st0" d="M22.8,31.4c-0.1-0.1-0.1-0.1-0.1-0.3c0-0.4,0-0.6,0-0.8c0-0.1,0-0.2,0.1-0.2s0.1,0,0.1,0.1c0,0.1,0,0.2,0,0.2
		c0.2,0.5,0.7,0.7,1.2,0.7c0.7,0,1.1-0.4,1.1-0.9c0-0.5-0.3-0.7-0.9-1.2l-0.3-0.2c-0.8-0.5-1-1-1-1.5c0-0.8,0.7-1.3,1.6-1.3
		c0.3,0,0.5,0,0.8,0.1c0.2,0,0.2,0,0.2,0s0.1,0,0.1,0.1c0,0,0,0.3,0,0.7c0,0.2,0,0.2-0.1,0.2c-0.1,0-0.1,0-0.1-0.1s-0.1-0.3-0.1-0.3
		c-0.1-0.1-0.3-0.4-0.9-0.4c-0.5,0-1,0.3-1,0.8c0,0.5,0.2,0.7,0.9,1.2l0.2,0.2c0.8,0.6,1.2,1.1,1.2,1.7c0,0.5-0.2,0.8-0.7,1.2
		c-0.3,0.2-0.8,0.2-1.2,0.2C23.6,31.7,23.1,31.6,22.8,31.4"/>
	<path class="st0" d="M32.6,31.4c0.7,0,2-0.3,2-2.4c0-1.7-1-2.5-2.2-2.5c-1.2,0-2.1,0.8-2.1,2.3C30.4,30.4,31.4,31.4,32.6,31.4
		L32.6,31.4z M32.4,26.2c1.6,0,2.8,1,2.8,2.6c0,1.6-1.2,2.8-2.9,2.8c-2,0-2.8-1.5-2.8-2.8C29.6,27.7,30.4,26.1,32.4,26.2"/>
	<path class="st0" d="M36.8,28.3c0-1.1,0-1.3,0-1.5c0-0.2-0.1-0.4-0.3-0.4c-0.1,0-0.2,0-0.2,0c0,0-0.1,0-0.1-0.1c0,0,0-0.1,0.2-0.1
		c0.3,0,0.8,0,0.8,0c0.2,0,1.7,0,1.8,0s0.3,0,0.3,0h0.1c0,0,0.1,0,0.1,0.1s0,0.2-0.1,0.3c0,0.1,0,0.4,0,0.5c0,0,0,0.1-0.1,0.1
		c0,0-0.1,0-0.1-0.1c0-0.1,0-0.2-0.1-0.3c-0.1-0.2-0.2-0.2-0.5-0.2h-1.2c0,0-0.1,0-0.1,0.1v1.9c0,0,0,0.1,0.1,0.1h1
		c0.2,0,0.2,0,0.3,0c0.2,0,0.3,0,0.3-0.2l0.1-0.1c0,0,0,0,0,0.1s0,0.2,0,0.4c0,0.2,0,0.5,0,0.5s0,0.2-0.1,0.2c0,0-0.1,0-0.1-0.1
		s0-0.2-0.1-0.2c0-0.1-0.2-0.2-0.4-0.2c-0.2,0-1,0-1.2,0c0,0-0.1,0-0.1,0.1v0.5c0,0.7,0,1.2,0,1.5c0,0.2,0.1,0.3,0.3,0.4
		c0.2,0,0.3,0,0.3,0s0.1,0,0.1,0.1s0,0.1-0.2,0.1c-0.4,0-0.8,0-0.9,0c-0.1,0-0.5,0-0.7,0c-0.1,0-0.2,0-0.2-0.1s0-0.1,0.1-0.1
		c0.1,0,0.2,0,0.2,0c0.2,0,0.2-0.2,0.2-0.4c0-0.3,0-0.8,0-1.5L36.8,28.3"/>
	<path class="st0" d="M4,38c0,0.5,0.1,0.8,0.3,0.8c0.2,0,0.3,0,0.4,0c0,0,0.1,0,0.1,0.1C4.8,39,4.7,39,4.6,39c-0.5,0-0.7,0-0.8,0
		c-0.1,0-0.4,0-0.7,0C3.1,39,3,39,3,38.9c0,0,0-0.1,0.1-0.1c0.1,0,0.2,0,0.3,0c0.2-0.1,0.2-0.2,0.2-0.8v-4c0-0.3,0-0.4,0.1-0.4
		c0.1,0,0.2,0.2,0.3,0.2c0,0.1,1.1,1.2,2.2,2.4c0.7,0.7,1.5,1.5,1.7,1.8l-0.1-3.5c0-0.5-0.1-0.6-0.3-0.7c-0.2,0-0.3,0-0.4,0
		s-0.1,0-0.1-0.1s0.1-0.1,0.2-0.1c0.3,0,0.7,0,0.8,0c0.1,0,0.3,0,0.6,0c0.1,0,0.2,0,0.2,0.1c0,0,0,0.1-0.1,0.1c0,0-0.1,0-0.2,0
		c-0.2,0.1-0.2,0.2-0.2,0.6v4.1c0,0.5,0,0.5-0.1,0.5S8.1,39,7.7,38.6c-0.1-0.1-1.2-1.1-1.8-1.9c-0.8-0.8-1.7-1.8-1.8-2L4,38"/>
	<path class="st0" d="M10.1,35.7c0-1.1,0-1.3,0-1.5c0-0.2-0.1-0.4-0.3-0.4c-0.1,0-0.2,0-0.2,0c0,0-0.1,0-0.1-0.1c0,0,0-0.1,0.2-0.1
		c0.3,0,0.8,0,0.8,0s0.5,0,0.7,0c0.1,0,0.2,0,0.2,0.1c0,0,0,0.1-0.1,0.1s-0.1,0-0.2,0c-0.2,0-0.2,0.2-0.2,0.4c0,0.2,0,0.5,0,1.5v1
		c0,1,0.2,1.5,0.5,1.7c0.4,0.3,0.7,0.4,1.1,0.4c0.5,0,0.8-0.2,1.2-0.5c0.3-0.4,0.5-1,0.5-1.7v-0.8c0-1.1,0-1.3,0-1.5
		c0-0.2-0.1-0.4-0.3-0.4c-0.1,0-0.2,0-0.2,0c0,0-0.1,0-0.1-0.1c0-0.1,0-0.1,0.2-0.1c0.3,0,0.8,0,0.8,0c0.1,0,0.4,0,0.6,0
		c0.1,0,0.2,0,0.2,0.1c0,0.1,0,0.1-0.1,0.1s-0.1,0-0.2,0c-0.2,0-0.2,0.2-0.2,0.4c0,0.2,0,0.5,0,1.5v0.8c0,0.8-0.1,1.6-0.7,2.1
		c-0.5,0.5-1.1,0.5-1.5,0.5c-0.2,0-1,0-1.5-0.5c-0.4-0.3-0.6-0.8-0.6-1.8L10.1,35.7"/>
	<path class="st0" d="M17.1,36.4C17.1,36.4,17.1,36.4,17.1,36.4c0.2,0.2,0.5,0.2,0.9,0.2c0.2,0,0.4,0,0.5-0.2
		c0.2-0.2,0.5-0.5,0.5-1.1c0-0.8-0.5-1.4-1.3-1.4c-0.2,0-0.5,0-0.5,0c0,0-0.1,0-0.1,0.1V36.4L17.1,36.4L17.1,36.4z M16.5,35.7
		c0-1.1,0-1.3,0-1.5c0-0.2-0.1-0.4-0.3-0.4c-0.1,0-0.2,0-0.2,0c0,0-0.1,0-0.1-0.1c0,0,0-0.1,0.2-0.1c0.3,0,0.8,0,0.8,0
		c0.1,0,0.7,0,0.9,0c0.5,0,1,0,1.4,0.3c0.2,0.2,0.5,0.5,0.5,1c0,0.5-0.2,1-0.8,1.6c0.6,0.7,1.1,1.4,1.5,1.8c0.4,0.4,0.6,0.5,0.8,0.5
		c0.2,0,0.2,0,0.2,0s0.1,0,0.1,0.1c0,0,0,0.1-0.2,0.1H21c-0.5,0-0.6,0-0.8-0.2c-0.3-0.2-0.5-0.5-1-1c-0.3-0.4-0.6-0.8-0.8-1h-0.1
		h-0.9c0,0-0.1,0-0.1,0.1l0,0c0,0.7,0,1.2,0,1.5c0,0.2,0.1,0.3,0.3,0.4c0.1,0,0.2,0,0.3,0s0.1,0,0.1,0.1c0,0,0,0.1-0.2,0.1
		c-0.4,0-0.8,0-0.9,0c0,0-0.5,0-0.7,0c-0.1,0-0.2,0-0.2-0.1c0,0,0-0.1,0.1-0.1s0.2,0,0.2,0c0.2,0,0.2-0.2,0.2-0.4c0-0.3,0-0.8,0-1.5
		L16.5,35.7"/>
	<path class="st0" d="M21.4,39c-0.1-0.1-0.1-0.1-0.1-0.3c0-0.3,0-0.6,0-0.8c0-0.1,0-0.2,0.1-0.2c0,0,0.1,0,0.1,0.1
		c0,0.1,0,0.2,0,0.2c0.2,0.5,0.7,0.7,1.2,0.7c0.7,0,1.1-0.4,1.1-0.9c0-0.5-0.3-0.7-0.9-1.2l-0.3-0.2c-0.8-0.5-1-1-1-1.5
		c0-0.8,0.7-1.3,1.6-1.3c0.3,0,0.5,0,0.8,0.1c0.2,0,0.2,0,0.2,0s0.1,0,0.1,0.1c0,0,0,0.3,0,0.7c0,0.2,0,0.2-0.1,0.2s-0.1,0-0.1-0.1
		c0-0.1-0.1-0.3-0.1-0.4c-0.1-0.1-0.3-0.3-0.9-0.3c-0.5,0-1,0.3-1,0.8s0.2,0.7,0.9,1.2l0.2,0.2c0.8,0.6,1.2,1.1,1.2,1.7
		c0,0.5-0.2,0.8-0.7,1.2c-0.3,0.2-0.8,0.2-1.2,0.2C22.1,39.1,21.7,39,21.4,39"/>
	<path class="st0" d="M26.8,37c0,0.7,0,1.2,0,1.5c0,0.2,0.1,0.3,0.3,0.4c0.2,0,0.3,0,0.3,0s0.1,0,0.1,0.1c0,0,0,0.1-0.2,0.1
		c-0.4,0-0.8,0-0.9,0s-0.5,0-0.7,0c-0.1,0-0.2,0-0.2-0.1c0,0,0-0.1,0.1-0.1s0.2,0,0.2,0c0.2,0,0.2-0.2,0.2-0.4c0-0.3,0-0.8,0-1.5
		v-1.2c0-1.1,0-1.3,0-1.5c0-0.2-0.1-0.3-0.2-0.4c-0.1,0-0.2,0-0.2,0s-0.1,0-0.1-0.1s0-0.1,0.2-0.1c0.2,0,0.7,0,0.7,0s0.5,0,0.7,0
		c0.1,0,0.2,0,0.2,0.1s0,0.1-0.1,0.1s-0.1,0-0.2,0c-0.2,0-0.2,0.2-0.2,0.4c0,0.2,0,0.5,0,1.5L26.8,37"/>
	<path class="st0" d="M29.4,38c0,0.5,0.1,0.8,0.3,0.8c0.2,0,0.3,0,0.4,0c0,0,0.1,0,0.1,0.1c0,0.1-0.1,0.1-0.2,0.1
		c-0.5,0-0.7,0-0.8,0s-0.4,0-0.7,0c-0.1,0-0.2,0-0.2-0.1c0,0,0-0.1,0.1-0.1s0.2,0,0.3,0c0.2-0.1,0.2-0.2,0.2-0.8v-4
		c0-0.3,0-0.4,0.1-0.4c0.1,0,0.2,0.2,0.3,0.2c0.2,0.2,1.2,1.2,2.3,2.4c0.7,0.7,1.5,1.5,1.7,1.8l-0.1-3.5c0-0.5-0.1-0.6-0.3-0.7
		c-0.2,0-0.3,0-0.4,0s-0.1,0-0.1-0.1s0.1-0.1,0.2-0.1c0.3,0,0.7,0,0.8,0c0.1,0,0.3,0,0.6,0c0.1,0,0.2,0,0.2,0.1c0,0,0,0.1-0.1,0.1
		c0,0-0.1,0-0.2,0c-0.2,0.1-0.2,0.2-0.2,0.6v4.1c0,0.5,0,0.5-0.1,0.5s-0.2-0.1-0.5-0.5c-0.1-0.1-1.2-1.1-1.8-1.9
		c-0.8-0.8-1.7-1.8-1.8-2L29.4,38"/>
	<path class="st0" d="M39.3,37.2c0-0.5,0-0.7-0.3-0.7c-0.1,0-0.2,0-0.2,0c0,0-0.1,0-0.1-0.1c0-0.1,0-0.1,0.2-0.1c0.3,0,0.8,0,0.8,0
		s0.5,0,0.7,0c0.1,0,0.2,0,0.2,0.1c0,0,0,0.1-0.1,0.1c-0.1,0-0.1,0-0.2,0c-0.2,0-0.3,0.2-0.3,0.4s0,0.5,0,0.7v0.8
		c0,0.3,0,0.3-0.1,0.4C39.4,39,38.8,39,38.4,39c-0.5,0-1.5-0.1-2.4-0.8c-0.5-0.4-0.8-1.2-0.8-2c0-1.2,0.5-1.9,1.2-2.3
		c0.7-0.4,1.4-0.5,1.9-0.5c0.5,0,1,0.1,1.2,0.2c0.2,0,0.4,0.1,0.5,0.1c0.1,0,0.1,0,0.1,0.1c0,0.1,0,0.3,0,1c0,0.2,0,0.2-0.1,0.2
		c0,0-0.1,0-0.1-0.2c0-0.1-0.1-0.3-0.2-0.5c-0.2-0.3-0.7-0.5-1.7-0.5c-0.5,0-1,0-1.5,0.5c-0.5,0.3-0.7,0.9-0.7,1.8
		c0,1,0.5,1.7,0.8,1.9c0.5,0.5,1.2,0.7,1.8,0.7c0.2,0,0.6,0,0.8-0.2c0.1-0.1,0.2-0.1,0.2-0.2L39.3,37.2"/>
	<line class="st1" x1="3.1" y1="40.4" x2="40.1" y2="40.4"/>
	<path class="st0" d="M4.9,44c0-0.1,0-0.2,0-0.2c0-0.1,0-0.2,0-0.3v-0.1c-0.1,0-0.2,0-0.3,0.1c-0.1,0.1-0.2,0.2-0.3,0.2
		c-0.2,0.1-0.2,0.2-0.2,0.4c-0.1,0.2-0.2,0.3-0.2,0.4c-0.1,0.2-0.2,0.4-0.3,0.5c-0.1,0.2-0.2,0.4-0.2,0.5c0,0.1,0,0.2,0,0.2
		s0.1,0.1,0.2,0.1c0.2,0,0.3-0.1,0.5-0.2s0.3-0.3,0.5-0.5c0.2-0.2,0.2-0.5,0.4-0.6C5,44.2,4.9,44,4.9,44L4.9,44L4.9,44z M6.8,43.9
		c-0.2,0.2-0.3,0.4-0.5,0.5c-0.2,0.2-0.4,0.2-0.6,0.2c-0.2,0-0.3,0-0.4-0.1c-0.2-0.1-0.2-0.2-0.3-0.3c-0.1,0.2-0.2,0.3-0.2,0.5
		c-0.1,0.2-0.2,0.3-0.3,0.5c-0.2,0.2-0.2,0.3-0.4,0.5C4,45.8,3.8,45.9,3.7,46S3.4,46,3.4,46c-0.3,0-0.5-0.2-0.5-0.4
		c0-0.2,0-0.3,0.1-0.5c0-0.2,0.2-0.3,0.2-0.5c0.1-0.2,0.2-0.3,0.2-0.5C3.4,44.1,3.5,44,3.6,44c0.2-0.2,0.3-0.3,0.5-0.5
		c0.2-0.2,0.5-0.2,0.7-0.2c0-0.1,0-0.2,0.1-0.2c0-0.1,0.1-0.2,0.2-0.2c0,0,0.1,0,0.2,0c0.1,0,0.1,0,0.1,0s0,0,0.1,0s0,0,0,0.1
		c-0.1,0.1-0.1,0.2-0.2,0.3c0,0.2,0,0.3,0,0.5c0,0.2,0,0.5,0.2,0.5c0.1,0.2,0.2,0.2,0.5,0.2s0.4-0.1,0.5-0.2S6.7,44,6.8,43.9
		C6.8,43.8,6.8,43.7,6.8,43.9C6.8,43.8,6.8,43.8,6.8,43.9"/>
	<path class="st0" d="M9.5,44.4c-0.2,0.2-0.3,0.4-0.5,0.6c-0.2,0.2-0.4,0.4-0.5,0.5s-0.5,0.3-0.6,0.4C7.8,46,7.4,46,7.3,46
		c-0.1,0-0.2,0-0.2,0S6.9,46,6.9,45.8s0-0.3,0.2-0.5c0.1-0.2,0.2-0.4,0.3-0.5c0.1-0.2,0.2-0.4,0.3-0.6C7.8,44,7.9,43.8,8,43.7v-0.1
		c0,0,0,0-0.1,0c-0.1,0.1-0.2,0.2-0.3,0.2c-0.2,0.1-0.2,0.2-0.4,0.3c-0.2,0.1-0.2,0.2-0.3,0.3c-0.2,0.2-0.2,0.2-0.3,0.3
		c-0.2,0.2-0.2,0.4-0.3,0.5c-0.1,0.2-0.2,0.4-0.3,0.5c0,0.1-0.1,0.1-0.1,0.1s-0.1,0-0.1-0.2c0-0.1,0-0.2,0-0.2
		c0-0.1,0.1-0.2,0.2-0.3s0.2-0.3,0.3-0.5c0.2-0.3,0.2-0.5,0.4-0.8c0.2-0.3,0.2-0.5,0.3-0.8l0.1-0.1c0,0,0.1,0,0.2,0.1
		c0,0,0.1,0.1,0.1,0.2c0,0-0.1,0.2-0.2,0.3c-0.2,0.2-0.2,0.5-0.3,0.7C7,44.2,7.1,44,7.3,43.9c0.2-0.2,0.3-0.3,0.5-0.5
		c0.2-0.2,0.3-0.2,0.5-0.3C8.4,43,8.4,43,8.4,43s0.1,0,0.1,0.1v0.1c0,0,0,0.1-0.1,0.2c-0.1,0.2-0.2,0.3-0.3,0.5
		c-0.2,0.2-0.2,0.5-0.4,0.6c-0.2,0.2-0.2,0.5-0.3,0.6c-0.1,0.2-0.2,0.3-0.2,0.5c0,0.1,0,0.2,0.1,0.2c0,0,0.1,0.1,0.2,0.1
		c0.2,0,0.3-0.1,0.5-0.2c0.2-0.1,0.4-0.2,0.5-0.4s0.4-0.3,0.5-0.5C9.3,44.7,9.4,44.5,9.5,44.4C9.5,44.3,9.5,44.3,9.5,44.4
		C9.5,44.3,9.5,44.4,9.5,44.4"/>
	<path class="st0" d="M13.9,41.5c-0.1,0-0.2,0-0.2,0.1c-0.1,0-0.2,0.1-0.2,0.2c-0.2,0.3-0.4,0.5-0.5,0.8s-0.3,0.5-0.5,0.8h1.4
		c0,0,0,0,0,0.1l0,0c-0.1,0-0.2,0-0.3,0c-0.2,0-0.2,0-0.4,0s-0.3,0-0.5,0s-0.3,0-0.4,0c-0.2,0.4-0.4,0.8-0.5,1
		c-0.1,0.3-0.2,0.5-0.2,0.7c0,0.3,0.2,0.5,0.4,0.5c0.2,0,0.3,0,0.5-0.1c0.2-0.1,0.3-0.2,0.5-0.3h0.1v0.1c-0.3,0.2-0.5,0.3-0.7,0.4
		c-0.2,0.1-0.5,0.2-0.7,0.2c-0.2,0-0.2,0-0.3-0.2c-0.1-0.1-0.2-0.2-0.2-0.4s0.1-0.4,0.2-0.7c0.2-0.3,0.3-0.7,0.6-1.2
		c-0.1,0-0.2,0-0.3,0c-0.2,0-0.2,0-0.2,0s-0.1,0-0.1-0.1s0.1-0.2,0.2-0.2h0.5c0.1-0.2,0.2-0.3,0.2-0.4c0.1-0.2,0.2-0.3,0.2-0.5
		c0.1-0.2,0.2-0.3,0.3-0.5c0.1-0.2,0.2-0.3,0.2-0.4c0.1,0,0.2-0.1,0.4-0.2C13.8,41.4,13.8,41.5,13.9,41.5
		C13.9,41.4,13.9,41.4,13.9,41.5L13.9,41.5"/>
	<path class="st0" d="M21,38c0,0.2,0,0.2,0,0.3c0,0.1,0,0.2,0,0.2l0,0l0,0c0-0.1,0-0.2,0-0.2c0-0.1-0.1-0.2-0.2-0.3
		c-0.1-0.1-0.2-0.2-0.3-0.2c-0.2-0.1-0.3-0.1-0.5-0.1c-0.2,0-0.4,0-0.6,0.1c-0.2,0.1-0.5,0.2-0.7,0.4c-0.2,0.2-0.5,0.5-0.8,0.7
		c-0.3,0.3-0.5,0.7-0.9,1.2c-0.3,0.5-0.7,1.1-1.1,1.8c-0.4,0.7-0.8,1.5-1.3,2.5c0.1-0.1,0.2-0.2,0.2-0.2c0.1-0.1,0.2-0.2,0.4-0.3
		s0.3-0.2,0.4-0.2c0.2-0.1,0.2-0.2,0.3-0.2s0.1,0,0.1,0.1c0,0.1,0,0.2-0.1,0.2s-0.2,0.2-0.2,0.4c-0.1,0.2-0.2,0.4-0.3,0.5
		s-0.2,0.4-0.2,0.5c-0.1,0.2-0.1,0.3-0.1,0.5c0,0.2,0,0.2,0.1,0.3s0.2,0.1,0.2,0.1c0.2,0,0.5-0.2,0.8-0.4c0.3-0.2,0.7-0.7,1.2-1.2
		c0,0,0,0,0.1,0s0,0,0,0.1c-0.2,0.2-0.3,0.5-0.5,0.7s-0.4,0.5-0.6,0.6s-0.4,0.3-0.6,0.5c-0.2,0.2-0.4,0.2-0.5,0.2s-0.2,0-0.3-0.2
		c-0.1-0.1-0.2-0.2-0.2-0.3s0-0.3,0.2-0.5c0.1-0.2,0.2-0.4,0.3-0.6c0.1-0.2,0.2-0.4,0.3-0.5s0.2-0.3,0.2-0.4v-0.1
		c-0.1,0-0.2,0.1-0.4,0.2c-0.2,0.2-0.4,0.4-0.7,0.8c-0.2,0.2-0.2,0.5-0.3,0.6c-0.2,0.2-0.2,0.5-0.3,0.5C13.8,46,13.7,46,13.7,46
		s-0.1,0-0.2,0s-0.1-0.1-0.1-0.2c0,0,0-0.1,0-0.2c0.3-0.6,0.6-1.2,0.9-1.7c0.3-0.5,0.6-1.1,0.9-1.6c0.4-0.6,0.8-1.2,1.2-1.8
		c0.4-0.6,0.8-1.2,1.2-1.7c0.5-0.5,0.8-0.9,1.3-1.3c0.5-0.3,0.8-0.5,1.3-0.5c0.2,0,0.2,0,0.3,0c0.2,0,0.2,0.1,0.3,0.2
		s0.2,0.2,0.2,0.3C21,37.6,21,37.7,21,38"/>
	<path class="st0" d="M18.2,43.5c0-0.2-0.1-0.2-0.2-0.2s-0.2,0-0.2,0.1c-0.1,0.1-0.2,0.2-0.2,0.2c-0.1,0.1-0.2,0.2-0.2,0.3
		c-0.1,0.1-0.2,0.2-0.2,0.3c0,0,0,0,0.1,0s0.1,0,0.1,0c0.2,0,0.5-0.1,0.5-0.2C18.1,44,18.2,43.7,18.2,43.5L18.2,43.5L18.2,43.5z
		 M19.4,44.4c-0.2,0.2-0.3,0.3-0.5,0.5c-0.2,0.2-0.4,0.3-0.5,0.5c-0.2,0.2-0.5,0.3-0.7,0.4c-0.2,0.1-0.5,0.2-0.7,0.2
		c-0.4,0-0.5-0.2-0.5-0.5c0-0.2,0.1-0.5,0.2-0.7c0.1-0.2,0.2-0.5,0.5-0.7c0.2-0.2,0.4-0.5,0.5-0.5c0.2-0.2,0.5-0.2,0.6-0.2
		s0.2,0,0.2,0.1c0,0,0.1,0.1,0.1,0.2s0,0.2-0.1,0.3c-0.1,0.1-0.2,0.2-0.3,0.3c-0.2,0.2-0.3,0.2-0.5,0.2s-0.4,0.1-0.6,0.1
		c0,0.1-0.1,0.2-0.2,0.3c0,0.2,0,0.4,0,0.5c0,0.3,0.2,0.5,0.5,0.5c0.2,0,0.4,0,0.5-0.2c0.2-0.1,0.4-0.2,0.5-0.3
		c0.2-0.2,0.3-0.3,0.5-0.5C19.1,44.7,19.3,44.5,19.4,44.4C19.4,44.4,19.4,44.4,19.4,44.4L19.4,44.4"/>
	<path class="st0" d="M23,43.7c0,0,0-0.1,0-0.2s-0.1-0.1-0.2-0.1c0,0-0.1,0-0.2,0.1c-0.1,0-0.2,0.2-0.2,0.2c-0.1,0-0.2,0.2-0.3,0.3
		c-0.1,0.2-0.2,0.2-0.3,0.4c-0.2,0.2-0.2,0.4-0.4,0.6c-0.2,0.2-0.2,0.5-0.4,0.7c0.2-0.1,0.5-0.2,0.7-0.4c0.2-0.2,0.5-0.4,0.6-0.5
		c0.2-0.2,0.3-0.4,0.4-0.6C22.9,44,23,43.8,23,43.7L23,43.7L23,43.7z M24.5,44c-0.4,0.5-0.8,0.9-1.3,1.2c-0.5,0.3-0.9,0.5-1.5,0.5
		c-0.2,0-0.3,0.1-0.5,0.1S21,46,20.9,46c-0.2,0.4-0.5,0.8-0.6,1.2c-0.2,0.4-0.4,0.8-0.6,1.2c-0.3,0.5-0.5,1.2-0.8,1.6
		c-0.2,0.5-0.5,1-0.8,1.5c-0.1,0.1-0.2,0.2-0.2,0.2c-0.1,0-0.2,0.1-0.3,0.2c-0.2,0-0.3,0.1-0.5,0.2c-0.2,0-0.3,0.1-0.5,0.2
		c-0.1,0-0.1,0-0.1,0s0-0.1,0.1-0.1c0.2-0.1,0.4-0.2,0.5-0.2c0.2-0.1,0.3-0.2,0.4-0.3c0.2-0.2,0.2-0.2,0.3-0.4s0.2-0.3,0.3-0.5
		c0.2-0.2,0.3-0.5,0.5-0.8s0.4-0.7,0.6-1.2c0.2-0.4,0.5-0.8,0.7-1.3c0.2-0.5,0.5-0.9,0.8-1.4c-0.1,0-0.1-0.1-0.1-0.2s0-0.1,0.1-0.1
		c0,0,0.1,0,0.2,0l0.5-0.9c0.2-0.5,0.5-0.8,0.7-1.3s0.5-0.8,0.8-1.2c0,0,0.1-0.1,0.2-0.1h0.1c0,0,0.1,0,0.2,0s0.1,0,0.2,0
		s0.1,0,0.1,0l0,0c0,0,0,0.1-0.1,0.1c-0.2,0.2-0.3,0.3-0.5,0.5c-0.2,0.2-0.2,0.3-0.3,0.5c-0.2,0.2-0.2,0.3-0.3,0.4
		c-0.1,0.2-0.2,0.3-0.3,0.5c0.1-0.1,0.2-0.2,0.2-0.3c0.1-0.1,0.2-0.2,0.3-0.3c0.1-0.1,0.2-0.2,0.3-0.2c0.2-0.1,0.2,0,0.3,0
		s0.2,0,0.2,0.1c0.1,0.1,0.1,0.2,0.1,0.2c0,0.1,0,0.2-0.1,0.4s-0.2,0.4-0.3,0.5c-0.2,0.2-0.4,0.5-0.6,0.7c-0.3,0.2-0.5,0.5-1,0.6
		c0.2,0,0.5-0.1,0.7-0.2s0.5-0.2,0.8-0.3c0.3-0.2,0.5-0.3,0.8-0.5c0.3-0.2,0.5-0.5,0.8-0.8l0,0C24.5,44,24.5,44,24.5,44"/>
	<path class="st0" d="M26.3,43.4c-0.1,0.1-0.1,0.2-0.2,0.2c-0.1,0.1-0.1,0.2-0.1,0.2s0,0-0.1,0l0,0c0,0,0-0.1-0.1-0.1
		c-0.1,0-0.1-0.1-0.2-0.1c-0.1,0-0.2,0-0.2,0c-0.1,0-0.2,0-0.3,0.2C25.1,43.9,25,44,24.9,44c-0.2,0.2-0.3,0.3-0.4,0.5
		c-0.2,0.2-0.2,0.3-0.3,0.5c-0.2,0.2-0.2,0.3-0.3,0.5c-0.1,0.2-0.2,0.3-0.3,0.5c0,0,0,0-0.1,0s-0.1,0-0.1-0.1
		c-0.1-0.1-0.1-0.1-0.1-0.2s0-0.2,0.1-0.2c0.2-0.2,0.2-0.5,0.4-0.7c0.2-0.2,0.2-0.5,0.4-0.6s0.2-0.4,0.3-0.5s0.2-0.3,0.2-0.3
		c0-0.1,0.1-0.2,0.1-0.2s0.1,0,0.2,0.1c0.1,0,0.1,0.1,0.1,0.2c0,0,0,0.1,0,0.2s-0.1,0.2-0.1,0.2c0,0.1-0.1,0.2-0.1,0.2
		s-0.1,0.1-0.1,0.2v0.1c0,0,0,0,0.1,0c0.1-0.1,0.2-0.2,0.3-0.3c0.1-0.1,0.2-0.2,0.4-0.3c0.2-0.1,0.2-0.2,0.4-0.2s0.2-0.1,0.3-0.1
		C26.3,43.3,26.4,43.3,26.3,43.4C26.3,43.4,26.3,43.4,26.3,43.4"/>
	<path class="st0" d="M28.1,43.4c-0.3,0-0.5,0.1-0.8,0.3c-0.2,0.2-0.5,0.5-0.6,0.7c-0.2,0.3-0.3,0.5-0.5,0.8
		c-0.2,0.3-0.2,0.5-0.2,0.5c0,0.1,0,0.1,0.1,0.1c0,0,0.2,0,0.2-0.1c0.1-0.1,0.2-0.2,0.3-0.3c0.2-0.2,0.2-0.2,0.4-0.4
		s0.2-0.3,0.4-0.5c0.2-0.2,0.2-0.4,0.4-0.6C27.8,43.7,28,43.5,28.1,43.4L28.1,43.4L28.1,43.4L28.1,43.4z M29.8,44.3
		c-0.2,0.2-0.4,0.5-0.5,0.7c-0.2,0.2-0.5,0.5-0.6,0.6c-0.2,0.2-0.5,0.3-0.6,0.5c-0.2,0.2-0.5,0.2-0.6,0.2s-0.3,0-0.3-0.2
		c-0.1-0.1-0.1-0.2-0.1-0.3s0-0.3,0.1-0.5c0.1-0.2,0.2-0.4,0.3-0.6c-0.1,0.2-0.2,0.3-0.3,0.5c-0.2,0.2-0.3,0.3-0.4,0.5
		c-0.2,0.2-0.3,0.2-0.5,0.3C26.1,46,26,46,25.9,46c-0.2,0-0.2-0.1-0.2-0.2s0.1-0.5,0.2-0.7c0.2-0.3,0.3-0.5,0.5-0.8
		c0.2-0.3,0.5-0.5,0.8-0.7c0.3-0.2,0.6-0.3,0.9-0.3c0-0.1,0.1-0.2,0.1-0.2c0-0.1,0.1-0.1,0.1-0.1l0.3-0.1l0,0c0,0-0.1,0.1-0.2,0.2
		c-0.1,0.1-0.1,0.2-0.2,0.2c0,0,0.1,0,0.2,0c0.1,0,0.2,0,0.2,0s0.1,0,0.1,0.1s0,0,0,0c-0.1,0-0.2,0-0.2,0s-0.2,0-0.2,0
		c-0.4,0.7-0.6,1.2-0.8,1.5c-0.2,0.4-0.2,0.7-0.2,0.8c0,0.1,0,0.2,0.1,0.2c0,0.1,0.1,0.1,0.2,0.1s0.3,0,0.5-0.2
		c0.2-0.1,0.4-0.2,0.5-0.4s0.4-0.4,0.6-0.5C29.4,44.7,29.6,44.4,29.8,44.3C29.8,44.2,29.8,44.2,29.8,44.3
		C29.9,44.2,29.8,44.2,29.8,44.3"/>
	<path class="st0" d="M31.3,41.7c0,0.1,0,0.2-0.2,0.3c-0.1,0.1-0.2,0.2-0.3,0.2S30.7,42,30.7,42c0-0.2,0-0.2,0.2-0.3
		c0.2-0.1,0.2-0.2,0.3-0.2S31.3,41.5,31.3,41.7L31.3,41.7L31.3,41.7z M31.8,44.4c-0.2,0.2-0.4,0.5-0.6,0.7c-0.2,0.2-0.5,0.5-0.7,0.5
		c-0.2,0.2-0.3,0.2-0.5,0.2c-0.2,0.1-0.3,0.1-0.5,0.1c-0.1,0-0.1,0-0.2,0c-0.1,0-0.2,0-0.2-0.1c-0.1,0-0.1-0.1-0.2-0.2
		c0-0.1-0.1-0.2-0.1-0.2c0-0.2,0-0.2,0.2-0.5c0.1-0.2,0.2-0.4,0.3-0.5c0.1-0.2,0.2-0.4,0.3-0.5c0.1-0.2,0.2-0.3,0.2-0.4
		c0-0.1,0.1-0.2,0.2-0.2s0.2-0.1,0.2-0.1h0.1c0,0,0,0,0,0.1v0.1c-0.1,0.2-0.2,0.3-0.3,0.5c-0.1,0.2-0.2,0.4-0.3,0.5
		c-0.1,0.2-0.2,0.3-0.2,0.5c-0.1,0.2-0.1,0.3-0.1,0.4c0,0.1,0,0.2,0.1,0.2c0,0,0.2,0.1,0.2,0.1c0.2,0,0.3-0.1,0.5-0.2
		c0.2-0.2,0.4-0.2,0.5-0.4s0.4-0.3,0.5-0.5C31.7,44.6,31.7,44.5,31.8,44.4L31.8,44.4C31.8,44.3,31.8,44.3,31.8,44.4"/>
	<path class="st0" d="M33.8,43.4c-0.1,0.1-0.1,0.2-0.2,0.2c-0.1,0.1-0.1,0.2-0.1,0.2s0,0-0.1,0l0,0c0,0,0-0.1-0.1-0.1
		c-0.1,0-0.1-0.1-0.2-0.1c-0.1,0-0.2,0-0.2,0c-0.1,0-0.2,0-0.3,0.2c-0.2,0.1-0.2,0.2-0.3,0.2c-0.2,0.2-0.3,0.3-0.4,0.5
		c-0.2,0.2-0.2,0.3-0.3,0.5c-0.2,0.2-0.2,0.3-0.3,0.5c-0.1,0.2-0.2,0.3-0.3,0.5c0,0,0,0-0.1,0s-0.1,0-0.1-0.1
		c-0.1-0.1-0.1-0.1-0.1-0.2s0-0.2,0.1-0.2c0.2-0.2,0.2-0.5,0.4-0.7c0.2-0.2,0.2-0.5,0.4-0.6s0.2-0.4,0.3-0.5
		c0.1-0.2,0.2-0.3,0.2-0.3l0.1-0.2c0,0,0.1,0,0.2,0.1c0.1,0,0.1,0.1,0.1,0.2c0,0,0,0.1,0,0.2s-0.1,0.2-0.1,0.2
		c0,0.1-0.1,0.2-0.1,0.2s-0.1,0.1-0.1,0.2v0.1c0,0,0,0,0.1,0c0.1-0.1,0.2-0.2,0.3-0.3c0.1-0.1,0.2-0.2,0.4-0.3
		c0.2-0.1,0.2-0.2,0.4-0.2s0.2-0.1,0.3-0.1S33.8,43.3,33.8,43.4C33.8,43.4,33.8,43.4,33.8,43.4"/>
	<path class="st0" d="M35.6,41.7c0,0.1,0,0.2-0.2,0.3c-0.1,0.1-0.2,0.2-0.3,0.2C35.1,42.1,35,42,35,42c0-0.2,0-0.2,0.2-0.3
		c0.1-0.1,0.2-0.2,0.3-0.2S35.6,41.5,35.6,41.7L35.6,41.7L35.6,41.7z M36.1,44.4c-0.2,0.2-0.4,0.5-0.6,0.7c-0.2,0.2-0.5,0.5-0.7,0.5
		c-0.2,0.2-0.3,0.2-0.5,0.2c-0.2,0.1-0.3,0.1-0.5,0.1c-0.1,0-0.1,0-0.2,0s-0.2,0-0.2-0.1c-0.1,0-0.1-0.1-0.2-0.2
		c0-0.1-0.1-0.2-0.1-0.2c0-0.2,0-0.2,0.2-0.5c0.1-0.2,0.2-0.4,0.3-0.5c0.1-0.2,0.2-0.4,0.3-0.5s0.2-0.3,0.2-0.4
		c0-0.1,0.1-0.2,0.2-0.2s0.2-0.1,0.2-0.1h0.1c0,0,0,0,0,0.1v0.1c-0.1,0.2-0.2,0.3-0.3,0.5c-0.1,0.2-0.2,0.4-0.3,0.5
		c-0.1,0.2-0.2,0.3-0.2,0.5c-0.1,0.3-0.1,0.4-0.1,0.5s0,0.2,0.1,0.2c0.1,0,0.2,0.1,0.2,0.1c0.2,0,0.3-0.1,0.5-0.2
		c0.2-0.2,0.4-0.2,0.5-0.4s0.4-0.3,0.5-0.5C35.9,44.6,36,44.5,36.1,44.4L36.1,44.4C36.1,44.3,36.1,44.3,36.1,44.4"/>
	<path class="st0" d="M37.3,43.5c0-0.2-0.1-0.2-0.2-0.2c-0.1,0-0.2,0-0.2,0.1c-0.1,0.1-0.2,0.2-0.2,0.2c-0.1,0.1-0.2,0.2-0.2,0.3
		c-0.1,0.1-0.2,0.2-0.2,0.3c0,0,0,0,0.1,0s0.1,0,0.1,0c0.2,0,0.5-0.1,0.5-0.2C37.1,44,37.3,43.7,37.3,43.5L37.3,43.5L37.3,43.5z
		 M38.4,44.4c-0.2,0.2-0.3,0.3-0.5,0.5c-0.2,0.2-0.4,0.3-0.5,0.5c-0.2,0.2-0.5,0.3-0.7,0.4c-0.2,0.1-0.5,0.2-0.7,0.2
		c-0.4,0-0.5-0.2-0.5-0.5c0-0.2,0.1-0.5,0.2-0.7c0.1-0.2,0.2-0.5,0.5-0.7c0.2-0.2,0.4-0.5,0.5-0.5c0.2-0.2,0.5-0.2,0.6-0.2
		s0.2,0,0.2,0.1c0,0,0.1,0.1,0.1,0.2s0,0.2-0.1,0.3c-0.1,0.2-0.2,0.2-0.3,0.3c-0.2,0.2-0.3,0.2-0.5,0.2c-0.2,0.1-0.4,0.1-0.6,0.1
		c0,0.1-0.1,0.2-0.2,0.3c0,0.2-0.1,0.3-0.1,0.5c0,0.3,0.2,0.5,0.5,0.5c0.2,0,0.4,0,0.5-0.2c0.2-0.1,0.4-0.2,0.5-0.3
		c0.2-0.2,0.3-0.3,0.5-0.5c0.2-0.2,0.3-0.3,0.4-0.5C38.4,44.4,38.4,44.4,38.4,44.4L38.4,44.4"/>
	<path class="st0" d="M39.6,43.7C39.5,43.7,39.5,43.7,39.6,43.7c-0.1-0.2-0.2-0.2-0.3-0.2c-0.2,0-0.2,0-0.3,0.1
		c-0.2,0.1-0.2,0.2-0.2,0.3c0,0.1,0,0.2,0.1,0.2c0.1,0,0.1,0.2,0.2,0.2c0.1,0.1,0.2,0.2,0.2,0.3c0.1,0.1,0.1,0.2,0.1,0.3
		c0,0.2,0,0.4-0.2,0.5c-0.1,0.2-0.2,0.2-0.3,0.3c-0.2,0.1-0.2,0.2-0.4,0.2s-0.2,0-0.3,0c-0.5,0-0.7-0.2-0.8-0.5c0,0,0.1-0.1,0.2-0.1
		s0.1-0.1,0.2-0.1c0,0,0,0,0,0.1c0,0.2,0.2,0.3,0.2,0.4c0.1,0.1,0.2,0.2,0.4,0.2c0.1,0,0.2,0,0.2,0c0.1,0,0.2,0,0.2-0.1
		c0.1-0.1,0.2-0.2,0.2-0.2c0.1-0.1,0.1-0.2,0.1-0.3s0-0.2-0.1-0.3c0-0.1-0.1-0.2-0.2-0.2c0-0.1-0.1-0.2-0.2-0.2
		c0-0.1-0.1-0.2-0.1-0.3c0-0.1,0-0.2,0.1-0.3c0.1-0.2,0.2-0.2,0.2-0.3c0.1-0.1,0.2-0.2,0.3-0.2c0.2-0.1,0.2-0.1,0.4-0.1
		s0.2,0,0.2,0.2C39.7,43.6,39.7,43.7,39.6,43.7C39.6,43.6,39.6,43.7,39.6,43.7"/>
	<path class="st0" d="M8.3,15c0,2.8,0,5.2,0.2,6.4c0.2,0.8,0.2,1.3,1.1,1.5c0.5,0.1,1.5,0.2,1.8,0.2c0.2,0,0.2,0.2,0.2,0.2
		c0,0.2-0.2,0.2-0.5,0.2c-2.1,0-3.8-0.1-4-0.1c-0.2,0-2.5,0.1-4.2,0.1c-0.3,0-0.5-0.1-0.5-0.2S2.6,23,2.7,23c0.3,0,1.7-0.1,2.2-0.2
		c0.9-0.2,1.1-0.5,1.2-1.4c0.1-1.2,0.1-3.5,0.1-6.4V6c0-0.5-0.1-0.8-0.5-0.8c-0.5,0-2.5,1-3.2,1.3C2.4,6.6,2.3,6.6,2.1,6.6
		C2.1,6.6,2,6.4,2,6.4S2.1,6.2,2.1,6l5.3-3.5c0.3-0.2,0.5-0.3,0.7-0.3c0.2,0,0.3,0.3,0.3,0.5c0,0.2-0.2,3-0.2,7.2V15"/>
	<path class="st0" d="M18.8,22.7c2.5,0,4.2-3.8,4.2-9.2S21.1,3.2,18.1,3.2c-2.5,0-4.2,3.7-4.2,9.3C13.9,17.3,15.3,22.7,18.8,22.7
		L18.8,22.7L18.8,22.7z M18.6,2.1c5.1,0,6.5,6.5,6.5,10.2c0,6.4-2.5,11.5-6.9,11.5s-6.5-5.2-6.5-10.2C11.7,7,14.2,2.1,18.6,2.1"/>
	<path class="st0" d="M33.1,22.7c2.5,0,4.2-3.8,4.2-9.2S35.5,3.2,32.4,3.2c-2.5,0-4.2,3.7-4.2,9.3C28.3,17.3,29.7,22.7,33.1,22.7
		L33.1,22.7L33.1,22.7z M33,2.1c5.1,0,6.5,6.5,6.5,10.2c0,6.4-2.5,11.5-6.9,11.5s-6.5-5.2-6.5-10.2C26.1,7,28.6,2.1,33,2.1"/>
</g>
</svg>
