<?xml version="1.0" encoding="UTF-8"?>
<svg id="Layer_1" data-name="Layer 1" xmlns="http://www.w3.org/2000/svg" viewBox="0 0 155.08 212.81">
  <defs>
    <style>
      .cls-1 {
        letter-spacing: .01em;
      }

      .cls-2 {
        letter-spacing: .01em;
      }

      .cls-3 {
        letter-spacing: .02em;
      }

      .cls-4 {
        letter-spacing: .01em;
      }

      .cls-5 {
        letter-spacing: .02em;
      }

      .cls-6 {
        fill: none;
        stroke: #fff;
        stroke-width: .81px;
      }

      .cls-7 {
        letter-spacing: .02em;
      }

      .cls-8 {
        letter-spacing: .01em;
      }

      .cls-9 {
        letter-spacing: .01em;
      }

      .cls-10 {
        letter-spacing: .01em;
      }

      .cls-11 {
        letter-spacing: .05em;
      }

      .cls-12 {
        letter-spacing: .02em;
      }

      .cls-13 {
        letter-spacing: .02em;
      }

      .cls-14 {
        letter-spacing: .02em;
      }

      .cls-15 {
        letter-spacing: .02em;
      }

      .cls-16 {
        letter-spacing: 0em;
      }

      .cls-17 {
        letter-spacing: .02em;
      }

      .cls-18 {
        letter-spacing: .02em;
      }

      .cls-19 {
        letter-spacing: .01em;
      }

      .cls-20 {
        letter-spacing: .02em;
      }

      .cls-21 {
        letter-spacing: .01em;
      }

      .cls-22 {
        letter-spacing: .02em;
      }

      .cls-23 {
        letter-spacing: .02em;
      }

      .cls-24 {
        font-family: AvenirNextCondensed-MediumItalic, 'Avenir Next Condensed';
        font-size: 12px;
        font-style: italic;
        font-weight: 500;
      }

      .cls-24, .cls-25 {
        fill: #fff;
      }

      .cls-26 {
        letter-spacing: .03em;
      }

      .cls-27 {
        letter-spacing: .01em;
      }

      .cls-28 {
        letter-spacing: .01em;
      }

      .cls-29 {
        letter-spacing: .01em;
      }

      .cls-30 {
        letter-spacing: .01em;
      }

      .cls-31 {
        letter-spacing: .01em;
      }

      .cls-32 {
        letter-spacing: .01em;
      }

      .cls-33 {
        letter-spacing: .01em;
      }

      .cls-34 {
        letter-spacing: .01em;
      }

      .cls-35 {
        letter-spacing: .02em;
      }

      .cls-25, .cls-36 {
        stroke-width: 0px;
      }

      .cls-36 {
        fill: #00b259;
      }

      .cls-37 {
        letter-spacing: .02em;
      }
    </style>
  </defs>
  <text class="cls-24" transform="translate(15.3 186.87)"><tspan class="cls-10" x="0" y="0">C</tspan><tspan class="cls-30" x="5.91" y="0">e</tspan><tspan class="cls-37" x="11.26" y="0">l</tspan><tspan class="cls-19" x="14.16" y="0">e</tspan><tspan class="cls-15" x="19.51" y="0">b</tspan><tspan class="cls-26" x="25.45" y="0">r</tspan><tspan class="cls-18" x="29.1" y="0">a</tspan><tspan class="cls-31" x="34.22" y="0">ti</tspan><tspan class="cls-14" x="40.38" y="0">n</tspan><tspan class="cls-23" x="46.3" y="0">g </tspan><tspan class="cls-27" x="54.69" y="0">th</tspan><tspan class="cls-7" x="63.89" y="0">e </tspan><tspan class="cls-10" x="71.79" y="0">C</tspan><tspan class="cls-5" x="77.7" y="0">e</tspan><tspan class="cls-32" x="83.06" y="0">n</tspan><tspan class="cls-1" x="88.94" y="0">t</tspan><tspan class="cls-5" x="92.19" y="0">e</tspan><tspan class="cls-21" x="97.55" y="0">n</tspan><tspan class="cls-9" x="103.41" y="0">n</tspan><tspan class="cls-2" x="109.26" y="0">i</tspan><tspan class="cls-29" x="112.13" y="0">a</tspan><tspan class="cls-4" x="117.21" y="0">l</tspan><tspan class="cls-23" x="120.07" y="0">s</tspan><tspan class="cls-28" x="-1.89" y="13">o</tspan><tspan class="cls-23" x="3.67" y="13">f </tspan><tspan class="cls-22" x="9.37" y="13">A</tspan><tspan class="cls-1" x="15.42" y="13">l</tspan><tspan class="cls-7" x="18.28" y="13">b</tspan><tspan class="cls-5" x="24.25" y="13">e</tspan><tspan class="cls-11" x="29.62" y="13">r</tspan><tspan class="cls-20" x="33.57" y="13">t</tspan><tspan class="cls-23" x="36.94" y="13">a </tspan><tspan class="cls-12" x="44.57" y="13">a</tspan><tspan class="cls-34" x="49.67" y="13">n</tspan><tspan class="cls-23" x="55.57" y="13">d </tspan><tspan class="cls-35" x="63.96" y="13">S</tspan><tspan class="cls-17" x="69.4" y="13">a</tspan><tspan class="cls-16" x="74.52" y="13">s</tspan><tspan class="cls-8" x="78.79" y="13">k</tspan><tspan class="cls-18" x="83.95" y="13">a</tspan><tspan class="cls-1" x="89.07" y="13">t</tspan><tspan class="cls-3" x="92.31" y="13">c</tspan><tspan class="cls-33" x="96.63" y="13">h</tspan><tspan class="cls-13" x="102.58" y="13">ew</tspan><tspan class="cls-12" x="115.3" y="13">a</tspan><tspan class="cls-7" x="120.4" y="13">n</tspan></text>
  <g>
    <path class="cls-25" d="m21.51,102.2c0-1.26-.16-1.72-.52-2.37-.19-.35-3.44-5.51-4.25-6.74-.57-.87-1.15-1.39-1.58-1.69-.35-.22-.82-.33-1.01-.33-.14,0-.25-.11-.25-.22s.08-.16.3-.16c.46,0,2.26.05,2.37.05.16,0,1.15-.05,2.07-.05.27,0,.33.05.33.16,0,.08-.16.16-.38.25-.19.08-.3.19-.3.38,0,.33.16.6.33.9l4.36,7.23c.49-.98,3.49-5.95,3.93-6.71.3-.52.41-.9.41-1.2,0-.33-.11-.52-.38-.6-.22-.05-.35-.16-.35-.27,0-.08.14-.14.38-.14.63,0,1.47.05,1.66.05.16,0,1.88-.05,2.35-.05.16,0,.3.05.3.14,0,.11-.11.24-.3.24-.27,0-.74.08-1.12.3-.46.27-.68.52-1.2,1.15-.79.93-4.17,6.38-4.66,7.36-.41.82-.3,1.55-.3,2.32v1.99c0,.38,0,1.36.08,2.32.05.68.22,1.12.93,1.23.33.05.87.11,1.09.11.14,0,.19.11.19.19,0,.11-.14.19-.38.19-1.34,0-2.89-.08-3.03-.08-.11,0-1.64.08-2.35.08-.27,0-.38-.05-.38-.19,0-.08.05-.19.19-.19.22,0,.49-.06.71-.11.49-.11.65-.54.71-1.23.05-.95.05-1.94.05-2.32v-1.99"/>
    <path class="cls-25" d="m34.41,97.4c0-3.6,0-4.25-.05-4.99-.05-.79-.19-1.17-.98-1.28-.19-.03-.6-.06-.82-.06-.08,0-.19-.11-.19-.19,0-.14.11-.19.38-.19,1.09,0,2.65.05,2.78.05.16,0,5.18.03,5.73,0,.46-.03.9-.11,1.09-.14.11-.03.22-.11.33-.11.08,0,.11.11.11.22,0,.16-.14.44-.19,1.09-.03.22-.08,1.25-.14,1.53-.03.11-.11.25-.22.25-.14,0-.19-.11-.19-.3,0-.16-.03-.55-.14-.82-.16-.38-.41-.55-1.72-.71-.41-.05-3.19-.08-3.46-.08-.11,0-.14.08-.14.24v6.3c0,.16,0,.25.14.25.3,0,3.46,0,4.01-.05.57-.05.93-.08,1.17-.33.16-.16.27-.3.35-.3s.14.05.14.19-.14.52-.19,1.28c-.05.46-.11,1.34-.11,1.5,0,.19-.05.44-.22.44-.11,0-.16-.08-.16-.22,0-.22,0-.46-.11-.76-.08-.33-.3-.6-1.23-.71-.66-.08-3.22-.11-3.63-.11-.14,0-.16.08-.16.16v1.94c0,.79-.03,3.49,0,3.95.05,1.55.49,1.85,2.86,1.85.63,0,1.77,0,2.4-.25.63-.27.95-.68,1.09-1.61.05-.27.11-.35.25-.35s.16.19.16.35-.19,1.75-.33,2.24c-.16.6-.41.6-1.34.6-1.8,0-3.19-.06-4.17-.08-1.01-.05-1.64-.05-1.99-.05-.05,0-.52,0-1.04.03-.46.03-1.01.05-1.39.05-.25,0-.38-.05-.38-.19,0-.08.05-.19.19-.19.22,0,.52-.08.74-.11.46-.08.52-.54.63-1.23.14-.95.14-2.78.14-5.02v-4.09"/>
    <path class="cls-25" d="m55.68,100.81c.11,0,.11-.06.08-.16l-2.37-6.35c-.14-.35-.27-.35-.41,0l-2.24,6.35c-.03.11,0,.16.08.16h4.85Zm-2.67-9.66c.3-.76.41-.9.57-.9.24,0,.33.33.57.84.44.98,4.28,10.56,5.76,14.07.87,2.07,1.53,2.37,2.05,2.54.35.11.71.14.95.14.14,0,.3.05.3.19s-.27.19-.55.19c-.35,0-2.13,0-3.79-.05-.46-.03-.85-.03-.85-.16,0-.11.05-.11.16-.16.14-.06.38-.24.22-.63l-2.15-5.32c-.05-.11-.08-.14-.22-.14h-5.54c-.11,0-.19.05-.24.19l-1.36,3.71c-.22.57-.35,1.15-.35,1.55,0,.46.41.63.82.63h.22c.19,0,.24.08.24.19,0,.14-.14.19-.35.19-.57,0-1.88-.08-2.15-.08-.25,0-1.45.08-2.43.08-.3,0-.46-.05-.46-.19,0-.11.11-.19.22-.19.16,0,.52-.03.71-.06,1.09-.14,1.55-.95,2.02-2.13l5.65-14.51"/>
    <path class="cls-25" d="m68.37,99.36c0,.14.05.22.16.3.35.19,1.58.35,2.65.35.57,0,1.23-.03,1.8-.41.82-.55,1.45-1.77,1.45-3.55,0-2.89-1.58-4.56-4.15-4.56-.71,0-1.47.08-1.72.14-.11.05-.19.14-.19.27v7.45h0Zm-2.07-1.96c0-3.6,0-4.25-.05-4.99-.05-.79-.19-1.17-.98-1.28-.19-.03-.6-.06-.82-.06-.08,0-.19-.11-.19-.19,0-.14.11-.19.38-.19,1.09,0,2.7.05,2.84.05.25,0,2.26-.05,3-.05,1.53,0,3.22.14,4.47,1.01.6.44,1.66,1.56,1.66,3.16,0,1.72-.71,3.38-2.95,5.29,1.96,2.45,3.63,4.55,5.02,6,1.28,1.31,2.07,1.53,2.67,1.61.46.08.71.08.85.08s.22.11.22.19c0,.14-.14.19-.57.19h-1.5c-1.36,0-1.96-.14-2.56-.46-1.04-.55-1.91-1.66-3.27-3.41-1.01-1.25-2.07-2.75-2.59-3.38-.11-.11-.16-.14-.33-.14l-3.06-.06c-.11,0-.16.06-.16.19v.55c0,2.24,0,4.04.11,4.99.08.68.22,1.12.95,1.23.33.05.85.11,1.06.11.16,0,.19.11.19.19,0,.11-.11.19-.38.19-1.31,0-2.84-.08-2.95-.08-.03,0-1.64.08-2.37.08-.24,0-.38-.05-.38-.19,0-.08.05-.19.19-.19.22,0,.52-.06.74-.11.46-.11.52-.54.63-1.23.14-.95.14-2.78.14-5.02v-4.09"/>
    <path class="cls-25" d="m82.28,107.9c-.33-.16-.35-.24-.35-.87,0-1.15.11-2.07.14-2.46,0-.24.05-.38.19-.38s.22.08.22.27,0,.52.08.84c.38,1.69,2.18,2.29,3.79,2.29,2.37,0,3.6-1.34,3.6-3.08s-.9-2.45-3.03-4.04l-1.09-.82c-2.59-1.94-3.44-3.35-3.44-4.96,0-2.73,2.15-4.36,5.32-4.36.95,0,1.91.14,2.48.27.46.11.65.11.84.11s.25.03.25.16c0,.11-.11.87-.11,2.45,0,.36-.03.52-.19.52s-.19-.11-.22-.3c-.03-.27-.22-.9-.35-1.14-.16-.27-.96-1.15-3.11-1.15-1.74,0-3.19.87-3.19,2.51,0,1.47.74,2.32,3.11,3.93l.68.46c2.92,1.99,3.93,3.6,3.93,5.59,0,1.36-.52,2.84-2.24,3.95-1.01.65-2.51.82-3.82.82-1.12,0-2.51-.16-3.49-.63"/>
    <path class="cls-25" d="m114.62,107.57c2.15,0,6.49-1.14,6.49-7.85,0-5.56-3.38-8.48-7.17-8.48-4.01,0-6.9,2.51-6.9,7.55,0,5.4,3.25,8.78,7.58,8.78h0Zm-.55-17.21c5.4,0,9.49,3.3,9.49,8.7s-3.85,9.46-9.63,9.46c-6.57,0-9.38-4.94-9.38-9.11,0-3.74,2.89-9.06,9.52-9.06"/>
    <path class="cls-25" d="m128.51,97.4c0-3.6,0-4.25-.06-4.99-.05-.79-.19-1.17-.98-1.28-.19-.03-.6-.06-.82-.06-.08,0-.19-.11-.19-.19,0-.14.11-.19.38-.19,1.09,0,2.59.05,2.73.05.46,0,5.67.03,6.22,0,.46-.03.87-.03,1.09-.11.14-.03.25-.14.33-.14.11,0,.16.11.16.22,0,.16-.11.44-.19,1.09-.03.22-.06,1.25-.11,1.53-.03.11-.11.25-.22.25s-.19-.11-.19-.27c0-.19-.08-.57-.22-.87-.14-.3-.71-.68-1.64-.68l-3.93-.05c-.14,0-.19.05-.19.25v6.33c0,.14,0,.22.16.22l3.27-.03c.41,0,.76,0,1.09-.03.57-.05.9-.14,1.12-.41.11-.14.22-.25.3-.25.11,0,.14.08.14.19,0,.14-.16.52-.22,1.28-.05.46-.08,1.39-.08,1.55,0,.22-.06.46-.22.46-.14,0-.16-.11-.16-.22-.03-.25-.05-.57-.16-.85-.11-.33-.49-.63-1.23-.74-.6-.08-3.44-.06-3.85-.06-.14,0-.16.06-.16.22v1.86c0,2.29,0,4.12.11,5.02.08.68.22,1.12.87,1.23.35.05.87.11,1.09.11.14,0,.19.11.19.19,0,.11-.11.19-.38.19-1.34,0-2.89-.08-3-.08-.14,0-1.64.08-2.37.08-.24,0-.38-.05-.38-.19,0-.08.05-.19.19-.19.22,0,.52-.08.74-.11.46-.08.52-.54.63-1.23.14-.95.14-2.78.14-5.02v-4.09"/>
    <path class="cls-25" d="m19.79,129.72c.05,1.91.27,2.48.93,2.65.44.11.98.14,1.2.14.11,0,.19.08.19.19,0,.14-.16.19-.44.19-1.36,0-2.32-.08-2.54-.08s-1.23.08-2.32.08c-.25,0-.38-.03-.38-.19,0-.11.08-.19.19-.19.19,0,.63-.03.98-.14.6-.16.68-.79.68-2.89v-13.28c0-.93.14-1.17.33-1.17.27,0,.68.46.93.71.38.38,3.87,4.09,7.58,7.91,2.37,2.45,4.94,5.21,5.67,5.97l-.25-11.62c-.03-1.5-.16-2.02-.9-2.15-.44-.08-.98-.11-1.17-.11-.16,0-.19-.14-.19-.22,0-.14.19-.16.46-.16,1.09,0,2.24.05,2.51.05s1.06-.05,2.05-.05c.25,0,.44.03.44.16,0,.08-.11.22-.27.22-.11,0-.3,0-.57.06-.79.16-.85.63-.85,2.02l-.05,13.58c0,1.53-.03,1.66-.19,1.66-.25,0-.49-.19-1.83-1.42-.24-.22-3.71-3.63-6.25-6.27-2.78-2.92-5.48-5.75-6.22-6.57l.27,10.94"/>
    <path class="cls-25" d="m40.19,122.06c0-3.6,0-4.25-.05-4.99-.05-.74-.19-1.17-.98-1.28-.19-.03-.6-.06-.82-.06-.08,0-.19-.11-.19-.19,0-.14.11-.19.38-.19,1.09,0,2.54.05,2.75.05s1.72-.05,2.43-.05c.27,0,.41.05.41.19,0,.08-.11.19-.22.19-.16,0-.3,0-.6.06-.63.11-.76.52-.82,1.28-.05.74-.05,1.39-.05,4.99v3.25c0,3.36.74,4.75,1.77,5.67,1.17,1.06,2.21,1.25,3.57,1.25,1.47,0,2.89-.65,3.71-1.64,1.12-1.34,1.36-3.25,1.36-5.62v-2.92c0-3.6-.03-4.25-.05-4.99-.03-.74-.16-1.17-.95-1.28-.19-.03-.6-.06-.82-.06-.11,0-.19-.11-.19-.19,0-.14.11-.19.38-.19,1.06,0,2.46.05,2.59.05.16,0,1.31-.05,2.02-.05.27,0,.38.05.38.19,0,.08-.08.19-.19.19-.16,0-.3,0-.6.06-.66.14-.79.52-.85,1.28-.05.74-.03,1.39-.03,4.99v2.48c0,2.51-.33,5.32-2.24,6.95-1.75,1.5-3.6,1.69-5.02,1.69-.79,0-3.3-.06-4.99-1.64-1.17-1.09-2.1-2.7-2.1-6.08v-3.41"/>
    <path class="cls-25" d="m63.37,124.02c0,.14.05.22.16.3.35.19,1.58.35,2.65.35.57,0,1.23-.03,1.8-.41.82-.55,1.45-1.77,1.45-3.55,0-2.89-1.58-4.56-4.15-4.56-.71,0-1.47.08-1.72.14-.11.05-.19.14-.19.27v7.45h0Zm-2.07-1.96c0-3.6,0-4.25-.05-4.99-.05-.79-.19-1.17-.98-1.28-.19-.03-.6-.06-.82-.06-.08,0-.19-.11-.19-.19,0-.14.11-.19.38-.19,1.09,0,2.7.05,2.84.05.25,0,2.26-.05,3-.05,1.53,0,3.22.14,4.47,1.01.6.44,1.66,1.55,1.66,3.16,0,1.72-.71,3.38-2.95,5.29,1.96,2.45,3.63,4.55,5.02,6,1.28,1.31,2.07,1.53,2.67,1.61.46.08.71.08.84.08s.22.11.22.19c0,.14-.14.19-.57.19h-1.5c-1.36,0-1.96-.14-2.56-.46-1.04-.55-1.91-1.66-3.27-3.41-1.01-1.25-2.07-2.75-2.59-3.38-.11-.11-.16-.14-.33-.14l-3.05-.06c-.11,0-.16.06-.16.19v.55c0,2.24,0,4.04.11,4.99.08.68.22,1.12.95,1.23.33.05.85.11,1.06.11.16,0,.19.11.19.19,0,.11-.11.19-.38.19-1.31,0-2.84-.08-2.95-.08-.03,0-1.64.08-2.37.08-.24,0-.38-.05-.38-.19,0-.08.05-.19.19-.19.22,0,.52-.06.74-.11.46-.11.52-.54.63-1.23.14-.96.14-2.78.14-5.02v-4.09"/>
    <path class="cls-25" d="m77.29,132.56c-.33-.16-.35-.24-.35-.87,0-1.15.11-2.07.14-2.46,0-.24.06-.38.19-.38s.22.08.22.27,0,.52.08.84c.38,1.69,2.18,2.29,3.79,2.29,2.37,0,3.6-1.34,3.6-3.08s-.9-2.45-3.03-4.04l-1.09-.82c-2.59-1.94-3.44-3.35-3.44-4.96,0-2.73,2.15-4.36,5.32-4.36.96,0,1.91.14,2.48.27.46.11.65.11.85.11s.25.03.25.16c0,.11-.11.87-.11,2.45,0,.36-.03.52-.19.52s-.19-.11-.22-.3c-.03-.27-.22-.9-.35-1.15-.16-.27-.95-1.14-3.11-1.14-1.75,0-3.19.87-3.19,2.51,0,1.47.74,2.32,3.11,3.93l.68.46c2.92,1.99,3.93,3.6,3.93,5.59,0,1.36-.52,2.84-2.24,3.96-1.01.65-2.51.82-3.82.82-1.12,0-2.51-.16-3.49-.63"/>
    <path class="cls-25" d="m95.15,126.15c0,2.24,0,4.06.11,5.02.08.68.16,1.12.87,1.23.36.05.87.11,1.09.11.14,0,.19.11.19.19,0,.11-.11.19-.38.19-1.34,0-2.89-.08-3-.08-.14,0-1.64.08-2.37.08-.25,0-.38-.05-.38-.19,0-.08.06-.19.19-.19.22,0,.52-.06.74-.11.46-.11.54-.54.63-1.23.11-.96.14-2.78.14-5.02v-4.09c0-3.6,0-4.25-.05-4.99-.06-.79-.25-1.14-.77-1.25-.27-.06-.57-.08-.74-.08-.11,0-.19-.11-.19-.19,0-.14.11-.19.38-.19.79,0,2.29.05,2.43.05.11,0,1.66-.05,2.4-.05.27,0,.38.05.38.19,0,.08-.11.19-.19.19-.16,0-.33,0-.6.06-.65.14-.79.46-.84,1.28-.03.74-.03,1.39-.03,4.99v4.09"/>
    <path class="cls-25" d="m103.96,129.72c.06,1.91.27,2.48.93,2.65.44.11.98.14,1.2.14.11,0,.19.08.19.19,0,.14-.16.19-.44.19-1.36,0-2.32-.08-2.54-.08s-1.23.08-2.32.08c-.25,0-.38-.03-.38-.19,0-.11.08-.19.19-.19.19,0,.63-.03.98-.14.6-.16.68-.79.68-2.89v-13.28c0-.93.14-1.17.33-1.17.27,0,.68.46.93.71.38.38,3.87,4.09,7.58,7.91,2.37,2.45,4.94,5.21,5.67,5.97l-.25-11.62c-.03-1.5-.16-2.02-.9-2.15-.44-.08-.98-.11-1.17-.11-.16,0-.19-.14-.19-.22,0-.14.19-.16.46-.16,1.09,0,2.24.05,2.51.05s1.06-.05,2.04-.05c.25,0,.44.03.44.16,0,.08-.11.22-.27.22-.11,0-.3,0-.57.06-.79.16-.84.63-.84,2.02l-.06,13.58c0,1.53-.03,1.66-.19,1.66-.25,0-.49-.19-1.83-1.42-.25-.22-3.71-3.63-6.25-6.27-2.78-2.92-5.48-5.75-6.22-6.57l.27,10.94"/>
    <path class="cls-25" d="m136.5,126.97c0-1.88-.05-2.15-1.04-2.35-.19-.03-.6-.06-.82-.06-.08,0-.19-.11-.19-.19,0-.16.11-.19.38-.19,1.09,0,2.7.05,2.84.05.11,0,1.61-.05,2.35-.05.27,0,.38.03.38.19,0,.08-.11.19-.19.19-.16,0-.33,0-.6.06-.65.11-.85.46-.9,1.28-.03.74-.03,1.42-.03,2.4v2.59c0,1.06-.03,1.09-.33,1.26-1.53.79-3.71,1.04-5.1,1.04-1.83,0-5.24-.22-7.91-2.48-1.47-1.23-2.86-3.71-2.86-6.6,0-3.71,1.88-6.33,4.01-7.61,2.16-1.31,4.56-1.47,6.38-1.47,1.53,0,3.22.27,3.68.38.49.11,1.34.25,1.94.25.25,0,.3.11.3.22,0,.33-.14.95-.14,3.27,0,.38-.11.49-.27.49-.14,0-.16-.14-.16-.36-.03-.3-.16-.98-.54-1.53-.6-.87-2.43-1.8-5.54-1.8-1.45,0-3.19.11-5.02,1.5-1.39,1.06-2.37,3.14-2.37,5.84,0,3.27,1.69,5.62,2.54,6.41,1.91,1.77,3.93,2.43,6.14,2.43.84,0,1.96-.08,2.59-.44.3-.16.49-.27.49-.71v-4.01"/>
    <line class="cls-6" x1="17.09" y1="137.5" x2="139.41" y2="137.5"/>
    <path class="cls-36" d="m23.05,149.17c-.05-.24-.09-.52-.11-.84-.03-.32-.04-.63-.04-.92,0-.13-.05-.2-.15-.2-.28,0-.57.1-.88.3-.3.2-.61.47-.91.8-.3.33-.61.71-.91,1.14-.3.43-.58.87-.84,1.32-.33.59-.63,1.22-.9,1.9-.27.68-.39,1.32-.36,1.94,0,.19.03.36.09.52.06.16.21.24.44.24.43,0,.9-.25,1.41-.76.51-.51.99-1.1,1.45-1.78.46-.68.84-1.37,1.16-2.06.32-.69.5-1.23.55-1.6h0Zm6.28-.28c-.43.61-.96,1.17-1.58,1.66-.62.49-1.33.74-2.11.74-.43,0-.86-.11-1.28-.34s-.75-.57-1.01-1.02c-.18.43-.41.91-.69,1.46-.28.55-.61,1.09-.99,1.64-.38.55-.81,1.05-1.28,1.5-.47.45-.97.83-1.5,1.12-.46.21-.84.32-1.14.32-.91,0-1.37-.43-1.37-1.28,0-.48.08-.97.25-1.48.17-.51.37-1,.63-1.48.25-.48.53-.93.82-1.36.29-.43.56-.77.82-1.04.53-.61,1.14-1.13,1.83-1.56.68-.43,1.42-.68,2.21-.76.05-.21.13-.46.23-.74.1-.28.28-.45.53-.5.13-.03.25-.05.38-.08.13-.03.24-.07.34-.12.08-.05.15-.06.23-.02.08.04.09.11.04.22-.18.29-.31.67-.4,1.12-.09.45-.13.95-.13,1.48,0,.75.13,1.36.4,1.84.27.48.73.72,1.39.72s1.26-.23,1.79-.68c.53-.45.98-.95,1.33-1.48.05-.13.13-.17.25-.12.11.05.12.13.02.24"/>
    <path class="cls-36" d="m38.16,150.53c-.46.67-.98,1.34-1.58,2.02-.6.68-1.23,1.29-1.9,1.82-.67.53-1.36.97-2.06,1.32-.7.35-1.38.52-2.04.52-.3,0-.58-.05-.84-.14-.25-.09-.38-.33-.38-.7s.13-.85.38-1.42c.25-.57.55-1.18.89-1.82.34-.64.7-1.29,1.07-1.96.37-.67.67-1.28.89-1.84.05-.13.06-.25.02-.34-.04-.09-.12-.1-.25-.02-.28.19-.61.44-.99.76-.38.32-.77.66-1.16,1.02-.39.36-.77.73-1.14,1.1-.37.37-.67.71-.89,1-.41.67-.76,1.28-1.05,1.84-.29.56-.65,1.19-1.08,1.88-.1.16-.18.24-.23.24-.13,0-.23-.15-.32-.44-.09-.29-.13-.48-.13-.56,0-.24.16-.57.48-.98.32-.41.67-.87,1.05-1.38.41-.85.82-1.75,1.26-2.7.43-.95.8-1.79,1.1-2.54.08-.13.19-.2.34-.2s.29.07.42.2c.13.13.19.28.19.44,0,.11-.18.47-.55,1.1-.37.63-.73,1.35-1.09,2.18.48-.45,1.01-.93,1.58-1.44.57-.51,1.12-.97,1.64-1.4.52-.43.98-.78,1.37-1.06.39-.28.67-.42.82-.42.1,0,.2.06.29.18.09.12.13.23.13.34s-.06.27-.19.48c-.28.43-.62.97-1.03,1.64-.41.67-.79,1.35-1.16,2.06-.37.71-.68,1.38-.93,2.02-.25.64-.38,1.15-.38,1.52,0,.32.06.54.19.66.13.12.33.18.61.18.43,0,.94-.17,1.52-.52.58-.35,1.19-.78,1.81-1.3.62-.52,1.21-1.1,1.77-1.74.56-.64,1.02-1.25,1.37-1.84.05-.08.13-.1.23-.06.1.04.09.14-.04.3"/>
    <path class="cls-36" d="m52.63,141.1c-.2.05-.43.15-.69.3-.25.15-.44.33-.57.54-.58.85-1.15,1.75-1.69,2.68-.55.93-1.07,1.86-1.58,2.8h4.72c.08.05.11.11.11.16s-.03.09-.08.12c-.2,0-.51,0-.91.02-.41.01-.85.03-1.33.06-.48.03-.98.06-1.48.08-.51.03-.95.05-1.33.08-.71,1.33-1.26,2.47-1.64,3.4-.38.93-.57,1.74-.57,2.44,0,.96.42,1.44,1.26,1.44.41,0,.87-.11,1.39-.34.52-.23,1.07-.53,1.66-.9.08-.08.15-.07.23.02.08.09.05.17-.08.22-.86.59-1.66,1.01-2.4,1.28-.74.27-1.48.4-2.25.4-.41,0-.76-.13-1.07-.38-.3-.25-.46-.69-.46-1.3,0-.53.23-1.32.69-2.36.46-1.04,1.13-2.32,2.02-3.84-.3.03-.68.06-1.12.1-.44.04-.7.06-.78.06-.13,0-.19-.05-.19-.16.1-.19.27-.37.49-.56l1.94-.04c.23-.4.48-.85.76-1.34.28-.49.56-.98.84-1.48.28-.49.56-.97.86-1.44.29-.47.55-.9.78-1.3.28-.13.67-.31,1.16-.52.49-.21.93-.39,1.31-.52.05,0,.09.03.11.1.03.07-.01.13-.11.18"/>
    <path class="cls-36" d="m76.12,129.34c0,.43-.02.75-.06.96-.04.21-.08.36-.11.44-.04.08-.08.1-.11.06-.04-.04-.06-.09-.06-.14,0-.19-.04-.44-.13-.76-.09-.32-.27-.63-.53-.94-.27-.31-.64-.57-1.12-.8-.48-.23-1.1-.34-1.87-.34-.66,0-1.34.1-2.04.3-.7.2-1.45.59-2.26,1.16-.81.57-1.68,1.37-2.61,2.38-.93,1.01-1.94,2.32-3.03,3.94-1.09,1.61-2.28,3.57-3.56,5.88-1.28,2.31-2.68,5.03-4.21,8.18.18-.16.46-.4.84-.72.38-.32.8-.64,1.26-.96.46-.32.9-.6,1.33-.84.43-.24.8-.36,1.1-.36.23,0,.34.09.34.28,0,.16-.11.4-.34.72-.2.32-.47.76-.8,1.32-.33.56-.65,1.16-.97,1.8-.32.64-.59,1.27-.82,1.88-.23.61-.34,1.11-.34,1.48,0,.43.1.75.3.96.2.21.48.32.84.32.58,0,1.41-.4,2.47-1.2,1.07-.8,2.28-2.16,3.66-4.08.05-.05.1-.08.15-.08s.08.05.08.16c-.48.72-1.05,1.44-1.69,2.16-.65.72-1.31,1.37-1.98,1.96-.67.59-1.35,1.06-2.02,1.42-.67.36-1.29.54-1.85.54-.43,0-.77-.13-1.03-.38-.25-.25-.38-.6-.38-1.06,0-.43.14-.97.42-1.64.28-.67.59-1.34.93-2.02.34-.68.65-1.31.93-1.88.28-.57.42-.98.42-1.22,0-.13-.04-.2-.11-.2-.23,0-.64.23-1.24.68-.6.45-1.34,1.31-2.23,2.56-.36.67-.72,1.36-1.1,2.08-.38.72-.71,1.36-.99,1.92-.2.43-.39.64-.57.64-.13,0-.29-.03-.49-.1-.2-.07-.31-.19-.31-.38,0-.13.04-.28.11-.44,1.07-2.02,2.11-3.94,3.12-5.74,1.02-1.8,2.04-3.56,3.08-5.3,1.22-2,2.48-4.04,3.79-6.12,1.31-2.08,2.65-3.97,4.02-5.68,1.37-1.71,2.76-3.1,4.17-4.18,1.41-1.08,2.82-1.62,4.24-1.62.36,0,.72.05,1.1.14.38.09.74.25,1.09.46.34.21.62.51.84.9.22.39.32.89.32,1.5"/>
    <path class="cls-36" d="m67.02,147.81c0-.35-.17-.52-.49-.52-.25,0-.51.1-.78.3-.27.2-.53.46-.78.78-.25.32-.49.67-.72,1.04-.23.37-.42.73-.57,1.08.05.03.14.05.27.06.13.01.23.02.31.02.74,0,1.38-.27,1.94-.82.56-.55.84-1.19.84-1.94h0Zm4,3.12c-.43.56-.95,1.14-1.54,1.74-.6.6-1.24,1.14-1.94,1.64-.7.49-1.42.89-2.17,1.2-.75.3-1.49.46-2.23.46-1.19,0-1.79-.56-1.79-1.68,0-.75.18-1.55.55-2.42.37-.87.84-1.67,1.43-2.4.58-.73,1.22-1.35,1.92-1.84.7-.49,1.36-.74,2-.74.36,0,.6.07.74.2.14.13.21.31.21.52,0,.32-.1.67-.29,1.04-.19.37-.48.73-.86,1.06-.38.33-.86.61-1.45.84-.58.23-1.28.34-2.09.34-.13.24-.27.62-.42,1.14-.15.52-.23,1.05-.23,1.58,0,1.09.47,1.64,1.41,1.64.58,0,1.19-.15,1.81-.44.62-.29,1.23-.66,1.81-1.1.58-.44,1.12-.92,1.62-1.44.5-.52.91-1.01,1.24-1.46.05-.05.11-.07.17-.04.06.03.1.08.1.16"/>
    <path class="cls-36" d="m82.59,148.37c0-.11-.02-.24-.06-.4-.04-.16-.17-.24-.4-.24-.13,0-.31.07-.55.22-.24.15-.51.35-.82.6-.31.25-.62.57-.95.94-.33.37-.65.79-.95,1.24-.43.64-.85,1.33-1.26,2.06-.4.73-.81,1.48-1.22,2.26.84-.24,1.63-.64,2.38-1.2.75-.56,1.41-1.17,1.98-1.84.57-.67,1.02-1.33,1.35-2,.33-.67.5-1.21.5-1.64h0Zm5.33,1.04c-1.35,1.79-2.79,3.11-4.32,3.98-1.54.87-3.14,1.5-4.82,1.9-.58.13-1.09.24-1.52.32-.43.08-.86.16-1.29.24-.74,1.31-1.43,2.6-2.09,3.9-.66,1.29-1.32,2.58-1.98,3.86-.96,1.89-1.84,3.68-2.63,5.36-.79,1.68-1.64,3.34-2.55,5-.18.32-.42.57-.72.74-.3.17-.66.33-1.07.46-.41.13-.87.27-1.41.4-.53.13-1.12.32-1.75.56-.15.08-.24.06-.27-.06-.03-.12.04-.21.19-.26.66-.27,1.22-.53,1.67-.78.46-.25.87-.55,1.24-.9.37-.35.72-.76,1.05-1.24.33-.48.71-1.08,1.14-1.8.43-.75.96-1.67,1.58-2.78.62-1.11,1.31-2.33,2.08-3.66.76-1.33,1.56-2.75,2.4-4.26.84-1.51,1.69-3.02,2.55-4.54-.15-.05-.23-.2-.23-.44,0-.16.08-.25.25-.28.17-.03.3-.05.4-.08l1.75-3c.81-1.39,1.62-2.83,2.44-4.32.81-1.49,1.65-2.82,2.51-4,.1-.11.24-.19.42-.24.05-.03.15-.05.3-.08.15-.03.31-.05.46-.08.15-.03.29-.05.42-.06.13-.01.2-.02.23-.02.08,0,.11.03.11.08,0,.08-.05.17-.15.28-.53.51-1,.99-1.41,1.46-.41.47-.79.92-1.14,1.36-.36.44-.69.89-1.01,1.34-.32.45-.64.95-.97,1.48.25-.29.53-.6.84-.92.3-.32.61-.61.91-.88.31-.27.61-.49.91-.66.3-.17.58-.26.84-.26s.46.08.63.24c.16.16.25.43.25.8,0,.27-.11.68-.32,1.24-.22.56-.58,1.19-1.1,1.88s-1.21,1.41-2.07,2.16c-.86.75-1.94,1.44-3.24,2.08.68-.08,1.45-.21,2.3-.38.85-.17,1.73-.47,2.64-.88.91-.41,1.83-.97,2.74-1.68.91-.71,1.78-1.62,2.59-2.74.03-.05.07-.07.13-.06.06.01.09.09.09.22"/>
    <path class="cls-36" d="m93.67,147.53c-.15.19-.31.41-.47.68-.17.27-.27.47-.32.6-.03.08-.08.12-.15.12-.03,0-.06-.04-.11-.12-.05-.08-.12-.17-.21-.26-.09-.09-.21-.18-.36-.26-.15-.08-.37-.12-.65-.12-.33,0-.7.12-1.1.36s-.76.51-1.07.8c-.48.43-.91.89-1.28,1.4-.37.51-.72,1.03-1.05,1.58-.33.55-.65,1.11-.95,1.68-.3.57-.63,1.15-.99,1.74-.02.08-.1.12-.23.12-.05,0-.16-.08-.32-.24-.16-.16-.25-.28-.25-.36,0-.16.09-.4.27-.72.41-.75.82-1.5,1.24-2.26.42-.76.81-1.47,1.18-2.14.37-.67.69-1.25.97-1.74.28-.49.47-.86.57-1.1.13-.24.22-.36.27-.36s.18.07.38.2c.2.13.31.32.31.56,0,.08-.04.21-.13.4-.09.19-.19.38-.3.58-.11.2-.22.39-.32.58-.1.19-.18.32-.23.4-.08.13-.09.2-.04.2s.11-.04.19-.12c.25-.27.56-.56.93-.88.37-.32.76-.62,1.16-.9.41-.28.81-.51,1.2-.7.39-.19.74-.28,1.05-.28.23,0,.43.06.59.18.16.12.25.25.25.38"/>
    <path class="cls-36" d="m99.42,147.17c-.86,0-1.69.32-2.47.96-.79.64-1.49,1.39-2.09,2.26-.61.87-1.1,1.72-1.47,2.58-.37.85-.55,1.48-.55,1.88,0,.21.08.32.23.32s.39-.11.7-.32c.32-.21.68-.5,1.09-.86s.82-.78,1.24-1.26c.42-.48.81-1,1.16-1.56.4-.64.8-1.32,1.18-2.04.38-.72.72-1.36,1.03-1.92l-.04-.04h0Zm5.94,3.04c-.58.75-1.22,1.5-1.92,2.26-.7.76-1.4,1.45-2.11,2.06-.71.61-1.42,1.11-2.11,1.48-.7.37-1.34.56-1.92.56-.51,0-.86-.13-1.07-.4-.2-.27-.31-.6-.31-1,0-.37.11-.87.32-1.5.22-.63.54-1.3.97-2.02-.33.45-.71.93-1.14,1.44-.43.51-.88.97-1.33,1.38-.46.41-.91.76-1.37,1.04-.46.28-.86.42-1.22.42-.53,0-.8-.28-.8-.84,0-.61.23-1.38.68-2.32.46-.93,1.07-1.83,1.85-2.7.77-.87,1.66-1.61,2.65-2.24.99-.63,2.02-.94,3.08-.94.13-.27.24-.45.34-.56.1-.11.2-.19.31-.24l1.07-.32.08.04c-.13.13-.25.3-.36.5-.11.2-.24.41-.36.62.13,0,.32.01.57.04.25.03.45.05.57.08.13.05.19.12.19.2s-.04.12-.11.12c-.15-.05-.38-.09-.69-.12-.3-.03-.53-.04-.68-.04-1.17,2.16-2.02,3.87-2.57,5.14-.55,1.26-.82,2.21-.82,2.82,0,.24.06.44.17.6.11.16.35.24.7.24.41,0,.89-.15,1.45-.46.56-.3,1.15-.73,1.79-1.28.64-.55,1.29-1.18,1.96-1.9.67-.72,1.31-1.48,1.92-2.28.05-.08.1-.1.15-.06s.08.1.08.18"/>
    <path class="cls-36" d="m110.23,141.54c0,.32-.13.64-.4.96-.27.32-.56.48-.89.48-.31,0-.46-.16-.46-.48,0-.35.12-.68.36-1,.24-.32.54-.48.9-.48.33,0,.5.17.5.52h0Zm1.71,8.92c-.61.83-1.31,1.61-2.09,2.36-.79.75-1.51,1.35-2.17,1.8-.51.35-1.03.61-1.56.8-.53.19-1.02.28-1.45.28-.15,0-.33-.01-.53-.04-.2-.03-.39-.09-.55-.2-.17-.11-.31-.24-.42-.42-.11-.17-.17-.41-.17-.7,0-.35.13-.82.38-1.42.25-.6.55-1.22.9-1.86.34-.64.68-1.25,1.03-1.84.34-.59.62-1.03.82-1.32.13-.21.35-.39.67-.54.32-.15.53-.22.63-.22.13,0,.19.04.19.12,0,.05-.02.13-.06.24-.04.11-.08.19-.13.24-.33.53-.67,1.12-1.01,1.76-.34.64-.65,1.26-.93,1.86-.28.6-.5,1.15-.67,1.66-.17.51-.25.91-.25,1.2,0,.32.08.55.25.7.17.15.39.22.67.22.51,0,1.06-.18,1.68-.54.61-.36,1.21-.79,1.81-1.3.6-.51,1.15-1.04,1.66-1.6.51-.56.9-1.04,1.18-1.44.13-.13.2-.17.21-.1.01.07,0,.17-.06.3"/>
    <path class="cls-36" d="m118.45,147.53c-.15.19-.31.41-.48.68-.17.27-.27.47-.32.6-.02.08-.08.12-.15.12-.02,0-.06-.04-.11-.12-.05-.08-.12-.17-.21-.26-.09-.09-.21-.18-.36-.26-.15-.08-.37-.12-.65-.12-.33,0-.7.12-1.1.36-.41.24-.76.51-1.07.8-.48.43-.91.89-1.28,1.4-.37.51-.72,1.03-1.05,1.58-.33.55-.65,1.11-.95,1.68-.31.57-.64,1.15-.99,1.74-.03.08-.1.12-.23.12-.05,0-.16-.08-.32-.24-.16-.16-.25-.28-.25-.36,0-.16.09-.4.27-.72.41-.75.82-1.5,1.24-2.26.42-.76.81-1.47,1.18-2.14.37-.67.69-1.25.97-1.74.28-.49.47-.86.57-1.1.13-.24.22-.36.27-.36s.18.07.38.2c.2.13.3.32.3.56,0,.08-.04.21-.13.4-.09.19-.19.38-.31.58-.12.2-.22.39-.32.58-.1.19-.18.32-.23.4-.08.13-.09.2-.04.2s.11-.04.19-.12c.25-.27.56-.56.93-.88.37-.32.75-.62,1.16-.9.41-.28.81-.51,1.2-.7.39-.19.74-.28,1.05-.28.23,0,.43.06.59.18.17.12.25.25.25.38"/>
    <path class="cls-36" d="m124.54,141.54c0,.32-.13.64-.4.96-.27.32-.57.48-.9.48-.3,0-.46-.16-.46-.48,0-.35.12-.68.36-1,.24-.32.54-.48.9-.48.33,0,.49.17.49.52h0Zm1.71,8.92c-.61.83-1.31,1.61-2.09,2.36-.79.75-1.51,1.35-2.17,1.8-.51.35-1.03.61-1.56.8-.53.19-1.02.28-1.45.28-.15,0-.33-.01-.53-.04-.2-.03-.39-.09-.55-.2-.17-.11-.31-.24-.42-.42-.11-.17-.17-.41-.17-.7,0-.35.13-.82.38-1.42.25-.6.55-1.22.9-1.86s.68-1.25,1.03-1.84c.34-.59.61-1.03.82-1.32.13-.21.35-.39.67-.54.32-.15.53-.22.63-.22.13,0,.19.04.19.12,0,.05-.02.13-.06.24-.04.11-.08.19-.13.24-.33.53-.67,1.12-1.01,1.76-.34.64-.65,1.26-.93,1.86-.28.6-.5,1.15-.67,1.66-.17.51-.25.91-.25,1.2,0,.32.08.55.25.7.16.15.39.22.67.22.51,0,1.07-.18,1.67-.54.61-.36,1.21-.79,1.81-1.3.6-.51,1.15-1.04,1.66-1.6.51-.56.9-1.04,1.18-1.44.13-.13.2-.17.21-.1.01.07,0,.17-.06.3"/>
    <path class="cls-36" d="m129.91,147.81c0-.35-.17-.52-.49-.52-.25,0-.51.1-.78.3-.27.2-.53.46-.78.78-.25.32-.49.67-.72,1.04-.23.37-.42.73-.57,1.08.05.03.14.05.27.06.13.01.23.02.31.02.74,0,1.38-.27,1.94-.82.56-.55.84-1.19.84-1.94h0Zm4,3.12c-.43.56-.94,1.14-1.54,1.74-.6.6-1.24,1.14-1.94,1.64-.7.49-1.42.89-2.17,1.2-.75.3-1.49.46-2.23.46-1.19,0-1.79-.56-1.79-1.68,0-.75.18-1.55.55-2.42.37-.87.84-1.67,1.43-2.4.58-.73,1.23-1.35,1.92-1.84.7-.49,1.37-.74,2-.74.35,0,.6.07.74.2.14.13.21.31.21.52,0,.32-.1.67-.29,1.04-.19.37-.48.73-.86,1.06-.38.33-.86.61-1.45.84-.58.23-1.28.34-2.09.34-.13.24-.27.62-.42,1.14-.15.52-.23,1.05-.23,1.58,0,1.09.47,1.64,1.41,1.64.58,0,1.19-.15,1.81-.44.62-.29,1.23-.66,1.81-1.1.58-.44,1.12-.92,1.62-1.44.49-.52.91-1.01,1.24-1.46.05-.05.11-.07.17-.04.06.03.09.08.09.16"/>
    <path class="cls-36" d="m137.6,148.37c-.08.13-.14.15-.19.04-.15-.35-.47-.52-.95-.52-.36,0-.71.11-1.07.32-.35.21-.53.53-.53.96,0,.21.06.43.19.64.13.21.3.49.53.84.2.32.39.64.57.96.18.32.27.65.27,1,0,.69-.15,1.26-.46,1.7-.3.44-.67.79-1.08,1.06-.42.26-.84.44-1.28.54-.43.09-.77.14-1.03.14-1.55,0-2.4-.55-2.55-1.64.13-.08.27-.18.44-.3.17-.12.29-.23.36-.34.05,0,.09.06.11.16.13.48.37.89.72,1.24.35.35.77.52,1.26.52.2,0,.44-.02.72-.06.28-.04.54-.13.78-.28.24-.15.45-.35.63-.62.18-.26.27-.62.27-1.08,0-.35-.06-.67-.19-.96-.13-.29-.27-.56-.42-.8-.15-.27-.31-.53-.46-.8-.15-.27-.23-.56-.23-.88s.11-.67.32-1.04c.22-.37.49-.71.82-1.02.33-.31.69-.57,1.08-.78.39-.21.78-.32,1.16-.32.41,0,.61.13.61.4-.08.13-.15.29-.23.46-.08.17-.14.33-.19.46"/>
    <path class="cls-36" d="m34.09,53.46c-.09,9.11,0,16.95.46,20.95.36,2.82.73,4.19,3.64,4.83,1.37.27,5.19.55,6.01.55.36,0,.82.36.82.73,0,.46-.46.64-1.55.64-6.83,0-12.66-.27-13.12-.27s-8.11.27-13.94.27c-1,0-1.55-.18-1.55-.64,0-.36.36-.73.73-.73,1.09,0,5.56-.27,7.29-.64,3.01-.55,3.64-1.91,3.83-4.74.27-4.01.27-11.84.27-20.95v-29.79c0-1.82-.18-2.82-1.64-2.82-1.73,0-8.11,3.28-10.39,4.37-.46.27-.73.36-1.09.36-.27,0-.64-.46-.64-.82,0-.27.27-.64.64-.91l17.58-11.75c.82-.55,1.55-1.09,2.19-1.09.73,0,1,1,1,1.91,0,.73-.36,9.75-.46,23.69l-.09,16.85"/>
    <path class="cls-36" d="m68.62,79.06c8.2,0,13.76-12.57,13.76-30.52s-5.65-34.17-15.94-34.17c-8.47,0-13.67,12.21-13.67,30.7,0,15.94,4.65,33.98,15.85,33.98h0Zm-.36-68.06c16.67,0,21.5,21.68,21.5,33.62,0,20.96-8.11,37.81-22.96,37.81s-21.41-17.31-21.41-33.62c0-21.5,8.29-37.81,22.87-37.81"/>
    <path class="cls-36" d="m116.09,79.06c8.2,0,13.76-12.57,13.76-30.52s-5.65-34.17-15.94-34.17c-8.47,0-13.67,12.21-13.67,30.7,0,15.94,4.65,33.98,15.85,33.98h0Zm-.36-68.06c16.67,0,21.5,21.68,21.5,33.62,0,20.96-8.11,37.81-22.96,37.81s-21.41-17.31-21.41-33.62c0-21.5,8.29-37.81,22.87-37.81"/>
  </g>
</svg>