<svg xmlns="http://www.w3.org/2000/svg" xmlns:xlink="http://www.w3.org/1999/xlink" width="300" height="300" viewBox="0 0 300 300">
  <defs>
    <clipPath id="clip-Sun-logo">
      <rect width="300" height="300"/>
    </clipPath>
  </defs>
  <g id="Sun-logo" clip-path="url(#clip-Sun-logo)">
    <g id="SUN" transform="translate(3.671 46.466)">
      <g id="GREEN_341" data-name="GREEN 341" transform="translate(9.69 6.32)">
        <path id="Path_108" data-name="Path 108" d="M101.505,179.348H278.9v21.343H59.778c-.866.046-1.755.058-2.645.058-9.262-.069-27.879-2.83-41.473-4.862l-4.735-.7L9.69,195V136.328l2.183,1.305c11.133,6.675,22.567,10.152,33.065,10.048h.046c2.09.058,8.477.219,11.249-2.483a4.766,4.766,0,0,0,1.409-3.557c-.012-5.359-6.583-12.6-14.182-20.985-13.1-14.448-31.032-34.22-31-60.783-.035-16.792,5.174-31.31,14.69-40.861C35.387,10.732,46.716,6.355,59.917,6.32c18.813.069,36.888,2.067,48.344,5.324l1.051.3v1.1l-.289,53.773V69.3l-2.171-1.247c-9.436-5.463-20.615-8.777-29.2-8.673h-.069c-1.79-.058-7.842,0-10.741,2.795a5.369,5.369,0,0,0-1.628,4.077c0,5.925,6.895,12.923,14.864,21.031,6.629,6.745,14.148,14.39,20.072,23.56,6.906,10.706,10.267,21.424,10.244,32.742.023,10.417-1.686,24.207-9.054,35.756h.127Z" transform="translate(-9.69 -6.32)" fill="#008061"/>
        <path id="Path_109" data-name="Path 109" d="M107.685,12.846C95.1,9.266,76.041,7.649,59.733,7.58,29.3,7.649,13.652,30.84,13.722,59.689c-.069,41.854,45.145,66.165,45.18,81.767-.035,7.588-9.955,7.588-14.136,7.484-11.272.1-23.121-3.846-33.816-10.256v54.881c13.362,1.963,35.71,5.474,46.012,5.544,40.249-.069,51.89-29.069,51.832-55.713.058-40.745-45.157-60.633-45.18-77.333.023-7.876,9.944-8.431,13.859-8.315,9.436-.115,21.089,3.753,29.935,8.87l.277-53.773h0Z" transform="translate(-9.495 -6.125)" fill="#008061"/>
        <g id="Group_19" data-name="Group 19" transform="translate(102.105 6.583)">
          <path id="Path_110" data-name="Path 110" d="M105.745,55.953V33.547h-4.874V55.953H98.1V17.309c0-2.622.37-5.289,5.3-5.289,4.8.046,5.116,2.668,5.116,5.243V55.953Zm0-40.029c0-1.282-.127-2.83-2.4-2.876-2.1,0-2.472,1.49-2.472,2.876V31.8h4.874Z" transform="translate(-98.1 -12.02)" fill="#008061" stroke="#008061" stroke-linecap="round" stroke-linejoin="bevel" stroke-width="0.25"/>
          <path id="Path_111" data-name="Path 111" d="M117.083,56.263c-4.931,0-5.3-2.668-5.3-5.289V41.931l2.772-.046V52.371c0,1.386.37,2.876,2.529,2.876,2.287-.046,2.344-1.594,2.344-2.876v-9.5a12.358,12.358,0,0,0-.681-3.65,17.382,17.382,0,0,0-2.287-5.243l-2.714-5.139a14.493,14.493,0,0,1-1.605-4.62,21.073,21.073,0,0,1-.37-4.781v-2.16c0-2.622.37-5.186,5.174-5.243,4.989,0,5.243,2.668,5.243,5.289v8.073h-2.772V15.934c0-1.386-.243-2.876-2.4-2.876-2.287.046-2.471,1.594-2.471,2.876V18.5a23.811,23.811,0,0,0,.37,5.139A14.021,14.021,0,0,0,116.517,28l2.587,4.989a27.948,27.948,0,0,1,2.16,4.677,14.736,14.736,0,0,1,.924,5.082V51.02c0,2.564-.312,5.186-5.116,5.243Z" transform="translate(-95.982 -12.018)" fill="#008061" stroke="#008061" stroke-linecap="round" stroke-linejoin="bevel" stroke-width="0.25"/>
          <path id="Path_112" data-name="Path 112" d="M128.14,12.24V31.608l5.613-19.368h2.16l-5.671,19.472,6.109,24.207h-2.587l-5.613-22.405V55.919H125.38V12.24h2.772Z" transform="translate(-93.874 -11.986)" fill="#008061" stroke="#008061" stroke-linecap="round" stroke-linejoin="bevel" stroke-width="0.25"/>
          <path id="Path_113" data-name="Path 113" d="M146.855,55.953V33.547h-4.874V55.953H139.21V17.309c0-2.622.37-5.289,5.3-5.289,4.8.046,5.116,2.668,5.116,5.243V55.953Zm0-40.029c0-1.282-.127-2.83-2.4-2.876-2.1,0-2.472,1.49-2.472,2.876V31.8h4.874Z" transform="translate(-91.732 -12.02)" fill="#008061" stroke="#008061" stroke-linecap="round" stroke-linejoin="bevel" stroke-width="0.25"/>
        </g>
        <g id="Group_20" data-name="Group 20" transform="translate(163.593 6.583)">
          <path id="Path_114" data-name="Path 114" d="M162.2,13.88h-4.135V55.919H155.29V13.88h-3.95V12.24H162.2Z" transform="translate(-151.34 -11.986)" fill="#008061" stroke="#008061" stroke-width="0.25"/>
          <path id="Path_115" data-name="Path 115" d="M174.765,51.84c0,2.414-1.351,4.469-5.174,4.423-3.88,0-5.3-1.906-5.3-4.262V17.319c0-2.622.37-5.289,5.3-5.289,4.8.046,5.174,2.622,5.174,5.243V25.5h-2.841V15.934c0-1.282-.127-2.83-2.4-2.876-2.1,0-2.472,1.49-2.472,2.876V52.983a2.293,2.293,0,0,0,2.472,2.16c1.663-.046,2.4-.982,2.4-2.1v-11.1h2.841v9.921Z" transform="translate(-149.334 -12.018)" fill="#008061" stroke="#008061" stroke-width="0.25"/>
          <path id="Path_116" data-name="Path 116" d="M181.1,12.24V31.712h4.874V12.24h2.841V55.919h-2.841V33.467H181.1V55.919H178.33V12.24Z" transform="translate(-147.159 -11.986)" fill="#008061" stroke="#008061" stroke-width="0.25"/>
          <path id="Path_117" data-name="Path 117" d="M200.381,12.24v1.64h-5.359V31.712H199.9v1.8h-4.874v20.6h5.428v1.8h-8.2V12.24h8.142Z" transform="translate(-145.003 -11.986)" fill="#008061" stroke="#008061" stroke-width="0.25"/>
          <path id="Path_118" data-name="Path 118" d="M209.107,38.4c-1.293,9.655-1.421,10.741-2.344,17.52h-1.536c-.739-11.976-.982-19.426-1.79-30.94-.37-4.931-.312-7.807-.5-12.739h2.9c.127,4.62,0,7.345.312,11.976.427,7.091.554,9.147.924,14.956.866-5.809,1.351-7.3,2.287-15,.554-4.008.739-6.317,1.166-10.279h.924c.427,3.753.427,5.139,1.109,9.655.982,6.479,1.721,9.817,2.841,16.03.127-6.017.243-9.5.37-15.522.127-4.62.243-7.241.312-11.815h1.848c-.127,4.885-.185,7.7-.37,12.588-.37,12.023-1.236,19.01-1.975,31.09h-1.109c-.866-6.837-1.166-10.787-2.217-17.578-.612-3.65-.924-5.809-1.536-9.5-.612,3.7-1.109,5.855-1.605,9.563Z" transform="translate(-143.347 -11.986)" fill="#008061" stroke="#008061" stroke-width="0.25"/>
          <path id="Path_119" data-name="Path 119" d="M227.505,55.953V33.547h-4.874V55.953H219.86V17.309c0-2.622.37-5.289,5.3-5.289,4.8.046,5.116,2.668,5.116,5.243V55.953Zm0-40.029c0-1.282-.127-2.83-2.4-2.876-2.1,0-2.472,1.49-2.472,2.876V31.8h4.874Z" transform="translate(-140.726 -12.02)" fill="#008061" stroke="#008061" stroke-width="0.25"/>
          <path id="Path_120" data-name="Path 120" d="M241.346,12.24h2.772V55.919h-2.772V47.592l-4.874-23.479V55.919H233.7V12.24h2.471l5.174,26.367Z" transform="translate(-138.582 -11.986)" fill="#008061" stroke="#008061" stroke-width="0.25"/>
        </g>
        <path id="Path_121" data-name="Path 121" d="M172.662,168.866h26.39V130.558c-.092-7.507-.046-6.456-.035-6.491l25.061,44.071.416.728h29.45V52.89H223.339V88.427c-.115,9.378-.069,15.048-.058,16.18l-24.357-50.9-.393-.82h-27.3V168.866h1.444Z" transform="translate(15.334 0.894)" fill="#008061" fill-rule="evenodd"/>
        <path id="Path_122" data-name="Path 122" d="M150.092,54.474l8.165,83.789h-38.4l7.888-83.789.15-1.582H98.26v79.885c0,14.737,2.391,23.71,7.784,29.115,6.964,6.976,17.89,6.976,33.019,6.976,15.014,0,25.858,0,32.788-6.964,5.382-5.393,7.773-14.379,7.749-29.138V52.88H149.954l.15,1.582Z" transform="translate(4.03 0.893)" fill="#008061"/>
        <g id="Group_21" data-name="Group 21" transform="translate(102.914 177.082)">
          <path id="Path_123" data-name="Path 123" d="M98.823,159.95h2.541v7.311c0,1.605.139,3.88,2.3,3.88s2.3-2.264,2.3-3.88V159.95H108.5v7.807c0,3.188-1.351,5.59-4.851,5.59s-4.851-2.4-4.851-5.59V159.95Z" transform="translate(-98.8 -159.604)" fill="#fff"/>
          <path id="Path_124" data-name="Path 124" d="M109.23,159.65h1.836l6.872,9.124h.035V160h2.541v13.316h-1.836l-6.872-9.124h-.035v8.87H109.23V159.65Z" transform="translate(-97.184 -159.65)" fill="#fff"/>
          <path id="Path_125" data-name="Path 125" d="M123.6,173.012H121.06V159.95H123.6Z" transform="translate(-95.352 -159.604)" fill="#fff"/>
          <path id="Path_126" data-name="Path 126" d="M124.78,166.51a6.47,6.47,0,1,1,6.456,6.895C127.425,173.4,124.78,170.252,124.78,166.51Zm2.633-.1c0,1.975,1.663,4.481,3.823,4.481s3.823-2.506,3.823-4.481a3.843,3.843,0,1,0-7.645,0Z" transform="translate(-94.775 -159.65)" fill="#fff"/>
          <path id="Path_127" data-name="Path 127" d="M137.5,159.65h1.836l6.872,9.124h.035V160h2.541v13.316h-1.836l-6.872-9.124h-.035v8.87H137.5V159.65Z" transform="translate(-92.805 -159.65)" fill="#fff"/>
          <path id="Path_128" data-name="Path 128" d="M156.54,166.51A6.47,6.47,0,1,1,163,173.4C159.185,173.4,156.54,170.252,156.54,166.51Zm2.633-.1c0,1.975,1.663,4.481,3.823,4.481s3.823-2.506,3.823-4.481a3.843,3.843,0,1,0-7.645,0Z" transform="translate(-89.856 -159.65)" fill="#fff"/>
          <path id="Path_129" data-name="Path 129" d="M171.811,162.167v2.876h3.684v2.217h-3.684v5.751H169.27V159.95h6.479v2.217h-3.927Z" transform="translate(-87.884 -159.604)" fill="#fff"/>
          <path id="Path_130" data-name="Path 130" d="M184.4,159.65h1.836l6.872,9.124h.035V160h2.541v13.316h-1.836l-6.872-9.124h-.035v8.87H184.4V159.65Z" transform="translate(-85.54 -159.65)" fill="#fff"/>
          <path id="Path_131" data-name="Path 131" d="M196.173,159.95h2.541v7.311c0,1.605.139,3.88,2.3,3.88s2.3-2.264,2.3-3.88V159.95h2.541v7.807c0,3.188-1.351,5.59-4.851,5.59s-4.851-2.4-4.851-5.59V159.95Z" transform="translate(-83.72 -159.604)" fill="#fff"/>
          <path id="Path_132" data-name="Path 132" d="M215.413,173.012H212.33l-3.164-5.266h-.035v5.266H206.59V159.95h3.442c2.575,0,4.366,1.143,4.366,3.927a3.437,3.437,0,0,1-2.668,3.615L215.413,173Zm-6.283-7.045h.323c1.4,0,2.391-.416,2.391-2.01s-1.016-1.917-2.368-1.917h-.346v3.927Z" transform="translate(-82.102 -159.604)" fill="#fff"/>
          <path id="Path_133" data-name="Path 133" d="M221.617,162.871a2.348,2.348,0,0,0-1.952-1.074,1.536,1.536,0,0,0-1.594,1.467c0,2.194,5.174,1.282,5.174,5.659a4.132,4.132,0,0,1-4.3,4.469,4.633,4.633,0,0,1-4.019-2.541l1.64-1.605a2.677,2.677,0,0,0,2.356,1.906,1.7,1.7,0,0,0,1.675-1.883c0-1.351-1.247-1.732-2.264-2.125-1.675-.693-2.91-1.536-2.91-3.569a3.8,3.8,0,0,1,3.811-3.915,5.344,5.344,0,0,1,3.569,1.455l-1.19,1.767Z" transform="translate(-80.811 -159.648)" fill="#fff"/>
          <path id="Path_134" data-name="Path 134" d="M226.282,162.167v2.876h4.054v2.217h-4.054v3.534h4.2v2.217H223.73V159.95h6.756v2.217Z" transform="translate(-79.447 -159.604)" fill="#fff"/>
          <path id="Path_135" data-name="Path 135" d="M237.727,162.871a2.348,2.348,0,0,0-1.952-1.074,1.536,1.536,0,0,0-1.594,1.467c0,2.194,5.174,1.282,5.174,5.659a4.132,4.132,0,0,1-4.3,4.469,4.633,4.633,0,0,1-4.019-2.541l1.64-1.605a2.677,2.677,0,0,0,2.356,1.906,1.7,1.7,0,0,0,1.675-1.883c0-1.351-1.247-1.732-2.264-2.125-1.675-.693-2.91-1.536-2.91-3.569a3.8,3.8,0,0,1,3.811-3.915,5.344,5.344,0,0,1,3.569,1.455l-1.19,1.767Z" transform="translate(-78.315 -159.648)" fill="#fff"/>
        </g>
      </g>
      <g id="Layer_1" data-name="Layer 1" transform="translate(12.566 9.207)">
        <path id="Path_136" data-name="Path 136" d="M105.774,63.978c-9.355-4.955-20.13-7.969-28.515-7.865h.058c-3.3-.092-9.355.243-12.831,3.6a8.208,8.208,0,0,0-2.506,6.144c0,7.114,6.929,14.148,15.7,23.052,13.154,13.374,29.519,30.016,29.485,54.281.023,12.288-2.425,29.416-14.263,41.288-8.546,8.581-20.707,12.947-36.137,12.981-9.054-.069-27.545-2.818-41.057-4.828l-3.522-.52V140.988c10.868,6.086,22.1,9.285,32.407,9.193h-.046c4.158.1,10.059-.115,13.339-3.292a7.535,7.535,0,0,0,2.275-5.624c-.012-6.479-6.595-13.732-14.933-22.925C38.57,111.006,31.04,102.7,25.1,92.932c-6.837-11.237-10.14-22.174-10.129-33.446-.035-16.03,4.885-29.82,13.847-38.828,7.8-7.83,18.132-11.815,30.721-11.838,17.947.069,35.248,1.917,46.5,4.92l-.266,50.215Z" transform="translate(-12.18 -8.82)" fill="#ffdf1c" stroke="#ffdf1c" stroke-width="1"/>
        <path id="Path_137" data-name="Path 137" d="M225.829,55.39H250.66v110.2h-24.9l-27.279-48.056-2.587-4.55-.115,5.232s-.092,4.423,0,11.965v35.4H173.72V55.39h22.59l26.771,56,2.714,5.336.023-5.971V55.39Z" transform="translate(12.844 -1.606)" fill="#ffdf1c" stroke="#ffdf1c" stroke-width="1" fill-rule="evenodd"/>
        <path id="Path_138" data-name="Path 138" d="M152.732,55.393H176.3v77c.023,13.732-2.16,22.347-6.906,27.094-6.086,6.109-16.423,6.109-30.732,6.109-14.448,0-24.865,0-30.986-6.133-4.735-4.747-6.941-13.351-6.929-27.071v-77l23.583-.023-7.888,83.812-.15,1.582h44.753l-.15-1.582-8.165-83.789Z" transform="translate(1.54 -1.609)" fill="#ffdf1c" stroke="#ffdf1c" stroke-width="1"/>
        <g id="Group_22" data-name="Group 22" transform="translate(100.038 174.195)">
          <path id="Path_139" data-name="Path 139" d="M98.823,159.95h2.541v7.311c0,1.605.139,3.88,2.3,3.88s2.3-2.264,2.3-3.88V159.95H108.5v7.807c0,3.188-1.351,5.59-4.851,5.59s-4.851-2.4-4.851-5.59V159.95Z" transform="translate(-98.8 -159.604)" fill="#fff"/>
          <path id="Path_140" data-name="Path 140" d="M109.23,159.65h1.836l6.872,9.124h.035V160h2.541v13.316h-1.836l-6.872-9.124h-.035v8.87H109.23V159.65Z" transform="translate(-97.184 -159.65)" fill="#fff"/>
          <path id="Path_141" data-name="Path 141" d="M123.6,173.012H121.06V159.95H123.6Z" transform="translate(-95.352 -159.604)" fill="#fff"/>
          <path id="Path_142" data-name="Path 142" d="M124.78,166.51a6.47,6.47,0,1,1,6.456,6.895C127.425,173.4,124.78,170.252,124.78,166.51Zm2.633-.1c0,1.975,1.663,4.481,3.823,4.481s3.823-2.506,3.823-4.481a3.843,3.843,0,1,0-7.645,0Z" transform="translate(-94.775 -159.65)" fill="#fff"/>
          <path id="Path_143" data-name="Path 143" d="M137.5,159.65h1.836l6.872,9.124h.035V160h2.541v13.316h-1.836l-6.872-9.124h-.035v8.87H137.5V159.65Z" transform="translate(-92.805 -159.65)" fill="#fff"/>
          <path id="Path_144" data-name="Path 144" d="M156.54,166.51A6.47,6.47,0,1,1,163,173.4C159.185,173.4,156.54,170.252,156.54,166.51Zm2.633-.1c0,1.975,1.663,4.481,3.823,4.481s3.823-2.506,3.823-4.481a3.843,3.843,0,1,0-7.645,0Z" transform="translate(-89.856 -159.65)" fill="#fff"/>
          <path id="Path_145" data-name="Path 145" d="M171.811,162.167v2.876h3.684v2.217h-3.684v5.751H169.27V159.95h6.479v2.217h-3.927Z" transform="translate(-87.884 -159.604)" fill="#fff"/>
          <path id="Path_146" data-name="Path 146" d="M184.4,159.65h1.836l6.872,9.124h.035V160h2.541v13.316h-1.836l-6.872-9.124h-.035v8.87H184.4V159.65Z" transform="translate(-85.54 -159.65)" fill="#fff"/>
          <path id="Path_147" data-name="Path 147" d="M196.173,159.95h2.541v7.311c0,1.605.139,3.88,2.3,3.88s2.3-2.264,2.3-3.88V159.95h2.541v7.807c0,3.188-1.351,5.59-4.851,5.59s-4.851-2.4-4.851-5.59V159.95Z" transform="translate(-83.72 -159.604)" fill="#fff"/>
          <path id="Path_148" data-name="Path 148" d="M215.413,173.012H212.33l-3.164-5.266h-.035v5.266H206.59V159.95h3.442c2.575,0,4.366,1.143,4.366,3.927a3.437,3.437,0,0,1-2.668,3.615L215.413,173Zm-6.283-7.045h.323c1.4,0,2.391-.416,2.391-2.01s-1.016-1.917-2.368-1.917h-.346v3.927Z" transform="translate(-82.102 -159.604)" fill="#fff"/>
          <path id="Path_149" data-name="Path 149" d="M221.617,162.871a2.348,2.348,0,0,0-1.952-1.074,1.536,1.536,0,0,0-1.594,1.467c0,2.194,5.174,1.282,5.174,5.659a4.132,4.132,0,0,1-4.3,4.469,4.633,4.633,0,0,1-4.019-2.541l1.64-1.605a2.677,2.677,0,0,0,2.356,1.906,1.7,1.7,0,0,0,1.675-1.883c0-1.351-1.247-1.732-2.264-2.125-1.675-.693-2.91-1.536-2.91-3.569a3.8,3.8,0,0,1,3.811-3.915,5.344,5.344,0,0,1,3.569,1.455l-1.19,1.767Z" transform="translate(-80.811 -159.648)" fill="#fff"/>
          <path id="Path_150" data-name="Path 150" d="M226.282,162.167v2.876h4.054v2.217h-4.054v3.534h4.2v2.217H223.73V159.95h6.756v2.217Z" transform="translate(-79.447 -159.604)" fill="#fff"/>
          <path id="Path_151" data-name="Path 151" d="M237.727,162.871a2.348,2.348,0,0,0-1.952-1.074,1.536,1.536,0,0,0-1.594,1.467c0,2.194,5.174,1.282,5.174,5.659a4.132,4.132,0,0,1-4.3,4.469,4.633,4.633,0,0,1-4.019-2.541l1.64-1.605a2.677,2.677,0,0,0,2.356,1.906,1.7,1.7,0,0,0,1.675-1.883c0-1.351-1.247-1.732-2.264-2.125-1.675-.693-2.91-1.536-2.91-3.569a3.8,3.8,0,0,1,3.811-3.915,5.344,5.344,0,0,1,3.569,1.455l-1.19,1.767Z" transform="translate(-78.315 -159.648)" fill="#fff"/>
        </g>
      </g>
    </g>
  </g>
</svg>
