<?xml version="1.0" encoding="utf-8"?>
<!-- Generator: Adobe Illustrator 28.3.0, SVG Export Plug-In . SVG Version: 6.00 Build 0)  -->
<svg version="1.1" id="Layer_1" xmlns="http://www.w3.org/2000/svg" xmlns:xlink="http://www.w3.org/1999/xlink" x="0px" y="0px"
	 viewBox="0 0 267.1 277.7" style="enable-background:new 0 0 267.1 277.7;" xml:space="preserve">
<style type="text/css">
	.st0{fill:#E93D42;}
	.st1{fill:#FFFFFF;}
</style>
<g>
	<path class="st0" d="M189.5,19.9c-27.7,0-50.3,26-50.3,57.9V137c0,0.4,0.3,0.8,0.8,0.8c0.4,0,0.8-0.3,0.9-0.7
		c4.5-27.3,25-47.1,48.6-47.1c23.7,0,44.1,19.8,48.6,47.2c0.1,0.4,0.4,0.7,0.8,0.7c0,0,0,0,0.1,0c0.4,0,0.8-0.4,0.8-0.8V77.9
		C239.8,45.9,217.3,19.9,189.5,19.9z"/>
	<path class="st0" d="M132.3,20c-0.4,0-0.8,0.3-0.9,0.7c-4.5,27.3-25,47.1-48.6,47.1c-23.7,0-44.1-19.8-48.6-47.2
		c-0.1-0.4-0.5-0.7-0.9-0.7c-0.4,0-0.8,0.4-0.8,0.8v59.2c0,31.9,22.6,57.9,50.3,57.9c27.7,0,50.3-26,50.3-57.9V20.8
		C133,20.4,132.7,20,132.3,20z"/>
</g>
<g>
	<path class="st1" d="M94.4,205.9c0,19.2-11.6,27.4-30,27.4c-6.7,0-16.6-1.6-23.1-8.8c-4-4.5-5.5-10.4-5.7-17.7v-48.3h15.5v47.3
		c0,10.2,5.9,14.6,13,14.6c10.5,0,14.7-5.1,14.7-13.9v-48h15.5V205.9z"/>
	<path class="st1" d="M153.8,158.5H168v72.9h-15.2l-29.7-52h-0.2v52h-14.2v-72.9h16l28.9,50.8h0.2V158.5z"/>
	<path class="st1" d="M193,231.4h-16l26-72.9h17.6l25.7,72.9h-16.6l-4.7-15h-26.9L193,231.4z M202.1,203.8h18.6l-9-28.8h-0.2
		L202.1,203.8z"/>
</g>
</svg>
